<svg width="40" height="40" viewBox="0 0 40 40" fill="none" xmlns="http://www.w3.org/2000/svg">
<path d="M19.7925 29.9736C25.4153 29.9736 29.9736 25.4153 29.9736 19.7925C29.9736 14.1696 25.4153 9.61133 19.7925 9.61133C14.1696 9.61133 9.61133 14.1696 9.61133 19.7925C9.61133 25.4153 14.1696 29.9736 19.7925 29.9736Z" fill="#FFE168"/>
<path d="M20.703 0H18.8816V7.14547H20.703V0Z" fill="#FFE168"/>
<path d="M6.43832 5.15201L5.15039 6.43994L10.203 11.4925L11.4909 10.2046L6.43832 5.15201Z" fill="#FFE168"/>
<path d="M0 18.8817L0 20.7031H7.14547V18.8817H0Z" fill="#FFE168"/>
<path d="M5.1547 33.1437L6.44263 34.4316L11.4952 29.379L10.2073 28.0911L5.1547 33.1437Z" fill="#FFE168"/>
<path d="M18.8818 39.5801H20.7031V32.4346H18.8818V39.5801Z" fill="#FFE168"/>
<path d="M33.1422 34.4315L34.4302 33.1436L29.3776 28.0909L28.0896 29.3789L33.1422 34.4315Z" fill="#FFE168"/>
<path d="M39.5801 20.7032V18.8818H32.4346V20.7032H39.5801Z" fill="#FFE168"/>
<path d="M34.4298 6.43978L33.1418 5.15186L28.0892 10.2045L29.3772 11.4924L34.4298 6.43978Z" fill="#FFE168"/>
</svg>
