<svg width="33" height="18" viewBox="0 0 33 18" fill="none" xmlns="http://www.w3.org/2000/svg">
<g clip-path="url(#clip0_214_1915)">
<path d="M12.1776 12.4776C9.14545 12.4776 6.10951 12.4776 3.0736 12.4776C2.77061 12.4983 2.46965 12.4151 2.22059 12.2417C1.97153 12.0684 1.78932 11.8154 1.70424 11.5247C0.7487 8.99239 1.24906 7.1241 3.46486 5.58971C4.14954 5.11327 4.33013 4.65182 4.46556 3.86399C4.87185 1.48175 6.44811 -0.0376291 8.92348 -0.0188712C10.4283 -0.0188712 11.6283 0.840236 12.4409 2.12327C12.5278 2.2971 12.6741 2.43423 12.8535 2.50991C13.0329 2.58558 13.2334 2.59482 13.419 2.53594C15.4505 2.24707 17.1359 2.8023 18.193 4.7156C18.4644 5.17992 18.6048 5.70882 18.5993 6.24624C18.5993 7.14286 18.7949 7.37171 19.7015 7.34169C21.496 7.28167 23.5726 10.2041 22.4891 11.8698C22.3994 12.0575 22.2564 12.2148 22.0778 12.3222C21.8993 12.4296 21.693 12.4823 21.4847 12.4738C18.3848 12.4776 15.2812 12.4776 12.1776 12.4776Z" fill="#ABABAB"/>
<path d="M22.2521 15.5689C19.2162 15.5689 16.1841 15.5689 13.1481 15.5689C12.8452 15.5896 12.5442 15.5064 12.2951 15.3331C12.046 15.1597 11.8639 14.9067 11.7788 14.616C10.8195 12.0837 11.3236 10.2154 13.5356 8.68103C14.2241 8.20458 14.4009 7.74314 14.5363 6.95531C14.9463 4.57306 16.5227 3.05368 18.998 3.07244C20.5028 3.07244 21.6991 3.93155 22.5117 5.21458C22.5986 5.38841 22.7449 5.52555 22.9243 5.60122C23.1036 5.6769 23.3042 5.68613 23.4898 5.62726C25.525 5.33839 27.2104 5.89362 28.2675 7.80691C28.5378 8.27153 28.6769 8.80046 28.67 9.33755C28.67 10.2342 28.8694 10.463 29.7723 10.433C31.5667 10.373 33.6471 13.2954 32.5637 14.9574C32.4745 15.1458 32.3317 15.3039 32.1531 15.4119C31.9745 15.52 31.768 15.5733 31.5592 15.5651C28.4744 15.5576 25.3557 15.5689 22.2521 15.5689Z" fill="#ABABAB" stroke="#E8E8E8" stroke-width="0.75" stroke-miterlimit="10"/>
<path d="M11.079 17.8462C8.0431 17.8462 5.01097 17.8462 1.97507 17.8462C1.67194 17.8676 1.37062 17.7846 1.12141 17.6112C0.872203 17.4378 0.690171 17.1844 0.605703 16.8933C-0.353599 14.361 0.150475 12.4927 2.36251 10.9583C3.05095 10.4819 3.22778 10.0204 3.36321 9.23259C3.77326 6.8541 5.34952 5.33471 7.8249 5.34972C9.32969 5.34972 10.526 6.21258 11.3386 7.49561C11.4255 7.6693 11.572 7.8061 11.7515 7.88115C11.931 7.95619 12.1316 7.96449 12.3167 7.90453C14.3519 7.61941 16.0373 8.1709 17.0944 10.0879C17.3645 10.5513 17.5036 11.0789 17.4969 11.6148C17.4969 12.5152 17.6963 12.7403 18.5992 12.714C20.3936 12.6503 22.474 15.5727 21.3906 17.2384C21.3014 17.4268 21.1586 17.5849 20.98 17.693C20.8014 17.801 20.5949 17.8543 20.3861 17.8462C17.2825 17.8387 14.1789 17.8462 11.079 17.8462Z" fill="#ABABAB" stroke="#E8E8E8" stroke-width="0.75" stroke-miterlimit="10"/>
</g>
<defs>
<clipPath id="clip0_214_1915">
<rect width="33" height="18" fill="white"/>
</clipPath>
</defs>
</svg>
