<svg width="39" height="26" viewBox="0 0 39 26" fill="none" xmlns="http://www.w3.org/2000/svg">
<path d="M20.4014 24.2673C26.9585 24.2673 32.2742 18.8349 32.2742 12.1337C32.2742 5.43242 26.9585 0 20.4014 0C13.8442 0 8.52856 5.43242 8.52856 12.1337C8.52856 18.8349 13.8442 24.2673 20.4014 24.2673Z" fill="#FFE168"/>
<path d="M10.3031 13.714H2.48265C1.22503 13.714 0.619514 13.1285 0.49841 11.8385C0.288808 9.76782 1.05735 8.24933 2.90185 7.33537C3.13074 7.22471 3.31692 7.03909 3.43084 6.80798C3.54475 6.57687 3.57989 6.31349 3.53066 6.05965C3.48575 5.43591 3.61732 4.81213 3.90967 4.26269C4.20202 3.71324 4.64283 3.26131 5.17953 2.96079C6.53496 2.08968 8.96634 2.28484 9.94915 3.91282C10.4382 4.73633 10.8807 5.08382 11.8961 4.72681C13.0745 4.32219 14.9423 5.37419 15.4826 6.55471C15.8429 7.18764 16.031 7.90746 16.0276 8.63966C15.9764 9.25372 16.4328 9.2918 16.8753 9.31084C17.4733 9.34855 18.048 9.56109 18.5311 9.92313C19.0142 10.2852 19.3852 10.7815 19.6002 11.353C19.7226 11.8982 19.7385 12.4628 19.6467 13.0142C19.5955 13.4903 19.2695 13.7092 18.7524 13.7045C15.9391 13.7045 13.1211 13.714 10.3031 13.714Z" fill="#DADADA" stroke="white" stroke-width="1.2" stroke-miterlimit="10"/>
<path d="M27.0481 25.6333C23.6013 25.6333 20.1546 25.6333 16.7124 25.6333C15.683 25.6333 15.343 25.2001 15.7809 24.2767C16.2187 23.3532 16.7683 22.4345 17.9048 22.1346C19.0413 21.8347 19.768 21.1826 19.8471 19.7545C20.0288 17.3649 22.572 15.7084 25.2595 16.3034C25.8407 16.4608 26.4499 16.4765 27.0381 16.3491C27.6263 16.2218 28.177 15.955 28.6458 15.5703C30.3878 14.247 33.1359 14.5754 34.7009 16.0749C35.572 16.8984 35.7303 17.979 35.8468 19.0357C35.9446 19.9259 36.089 20.6732 36.9088 21.2064C37.994 21.8966 38.4132 23.039 38.6182 24.2767C38.7626 25.1763 38.5343 25.6714 37.4956 25.6571C34.0023 25.6047 30.5275 25.6333 27.0481 25.6333Z" fill="#DADADA" stroke="white" stroke-width="1.2" stroke-miterlimit="10"/>
</svg>
