<svg width="128" height="28" viewBox="0 0 128 28" fill="none" xmlns="http://www.w3.org/2000/svg">
<path d="M30.7977 2.10558H28.3099V12.0534H32.1214V0.0794678H34.2743V6.23726H35.869V0.0794678H38.022V15.613H35.869V8.00912H34.2743V15.613H32.1214V13.7776H27.9989C27.7355 13.7934 27.4717 13.7527 27.2254 13.6581C26.9792 13.5635 26.7562 13.4173 26.5716 13.2293C26.2819 12.8261 26.1461 12.333 26.1889 11.8389V0.405235H30.8376L30.7977 2.10558Z" fill="white"/>
<path d="M48.8663 0.405235V2.14531H46.0515C46.0142 3.5547 46.4122 4.9415 47.1918 6.11808C47.8205 7.0262 48.6568 7.77241 49.6318 8.29516L48.659 9.68563C47.9143 9.28214 47.2117 8.8057 46.5619 8.26337C45.9397 7.76041 45.4014 7.16238 44.9671 6.49152C44.5366 7.16525 43.9978 7.76385 43.3723 8.26337C42.7389 8.79279 42.0583 9.26353 41.339 9.66973L40.4619 8.27926C41.4363 7.7741 42.2611 7.02352 42.8541 6.10219C43.5782 4.90548 43.9408 3.52619 43.8986 2.12942H41.2354V0.405235H48.8663ZM44.082 13.6743H52.8532V15.4144H43.8428C43.3167 15.4623 42.7907 15.3214 42.3597 15.0171C42.203 14.839 42.0847 14.6307 42.012 14.4052C41.9393 14.1797 41.9138 13.9418 41.9371 13.7061V10.4246H44.09L44.082 13.6743ZM52.7256 11.386H50.5727V5.53805H48.1805V3.78209H50.5727V0.0794678H52.7256V11.386Z" fill="white"/>
<path d="M60.6436 0.206596V5.84793C60.7095 7.44184 61.2023 8.98913 62.0709 10.3292C62.675 11.3933 63.4236 12.3692 64.2956 13.2293L62.956 14.4688C61.2283 13.0561 60.0449 11.0908 59.607 8.90696C59.3453 10.1027 58.8524 11.2362 58.1557 12.2441C57.5991 13.0728 56.925 13.8168 56.1543 14.4529L55.0061 13.2293C55.8617 12.4117 56.5757 11.4586 57.1192 10.4087C57.956 9.02845 58.4279 7.45928 58.4907 5.84793V0.206596H60.6436ZM67.6525 0.0794678V15.613H65.4996V0.0794678H67.6525Z" fill="white"/>
<path d="M78.3453 0.405235V8.89107H72.8274C72.5813 8.91056 72.3337 8.87896 72.1004 8.79828C71.867 8.71759 71.653 8.58956 71.4719 8.42228C71.1579 8.05689 71.0004 7.58326 71.0333 7.10332V0.405235H78.3453ZM73.9039 13.6743H82.6751V15.4144H73.6567C73.1309 15.4595 72.6059 15.3188 72.1736 15.0171C72.0185 14.838 71.9012 14.6296 71.8286 14.4044C71.756 14.1791 71.7296 13.9417 71.751 13.7061V10.4246H73.9039V13.6743ZM73.1783 2.14531V7.21456H76.2083V2.14531H73.1783ZM82.5555 0.0794678V11.2429H80.4105V0.119196L82.5555 0.0794678Z" fill="white"/>
<path d="M88.5679 1.31101V0H90.7208V1.31101H93.6312V3.05109H90.7208C90.6831 4.2528 91.0233 5.43621 91.6936 6.43589C92.314 7.30546 93.1841 7.96749 94.1894 8.33487L93.2246 9.67767C92.4199 9.33183 91.6809 8.85074 91.0398 8.25541C90.4348 7.73862 89.9435 7.10296 89.5965 6.38821C89.2405 7.11285 88.7351 7.75452 88.1134 8.27131C87.4564 8.86541 86.7045 9.3461 85.8887 9.69356L85.0913 8.33487C86.0501 7.9431 86.879 7.29057 87.4834 6.45178C88.1986 5.46367 88.5684 4.26892 88.536 3.05109H85.6256V1.31101H88.5679ZM88.8151 13.6504H97.5862V15.3905H88.5679C88.0418 15.4384 87.5158 15.2975 87.0848 14.9932C86.9281 14.8151 86.8098 14.6069 86.7371 14.3814C86.6644 14.1559 86.6389 13.9179 86.6621 13.6822V10.4245H88.8151V13.6504ZM97.4587 11.4177H95.3057V6.25314H92.8578V4.52896H95.3057V0.0953464H97.4587V11.4177Z" fill="white"/>
<path d="M112.967 9.45524H108.135V11.9899H105.99V9.45524H100.345V7.6675H112.952L112.967 9.45524ZM112.25 0.405273V6.13401H102.849C102.604 6.15167 102.359 6.1184 102.129 6.03631C101.898 5.95423 101.687 5.82514 101.509 5.65728C101.192 5.2903 101.035 4.81309 101.071 4.33037V0.405273H112.25ZM103.224 13.6743H112.25V15.4144H102.976C102.45 15.4595 101.925 15.3189 101.493 15.0171C101.338 14.838 101.221 14.6296 101.148 14.4044C101.076 14.1792 101.049 13.9417 101.071 13.7061V10.7106H103.224V13.6743ZM103.224 2.14535V4.39393H110.097V2.14535H103.224Z" fill="white"/>
<path d="M120.28 2.10558H117.784V12.0534H121.603V0.0794678H123.756V6.23726H125.351V0.0794678H127.504V15.613H125.351V8.00912H123.756V15.613H121.603V13.7776H117.481C117.22 13.7975 116.957 13.7618 116.711 13.6727C116.465 13.5837 116.241 13.4433 116.053 13.2611C115.742 12.8548 115.592 12.3486 115.631 11.8389V0.405235H120.28V2.10558Z" fill="white"/>
<path d="M28.7993 20.3803H30.9443C31.5832 20.3236 32.2256 20.4417 32.8022 20.722C32.9725 20.8705 33.1043 21.058 33.1862 21.2683C33.2681 21.4786 33.2978 21.7055 33.2726 21.9297V25.9899C33.2992 26.2449 33.2687 26.5026 33.1832 26.7444C33.0977 26.9863 32.9594 27.2062 32.7782 27.3883C32.2191 27.7122 31.5723 27.8539 30.9283 27.7935H28.7993V20.3803ZM29.9874 26.8162C30.5615 26.8162 30.9522 26.8162 31.1596 26.8162C31.3761 26.8033 31.5877 26.7465 31.7815 26.6493C31.8478 26.6035 31.9039 26.5446 31.9464 26.4762C31.9889 26.4079 32.0169 26.3316 32.0287 26.2521C32.0732 25.9896 32.0919 25.7235 32.0845 25.4575V22.3746C32.091 22.1639 32.0723 21.9532 32.0287 21.7469C32.0101 21.6784 31.978 21.6143 31.9341 21.5584C31.8903 21.5024 31.8357 21.4558 31.7735 21.4212C31.5725 21.3439 31.3591 21.3035 31.1436 21.302H29.9874V26.8162Z" fill="white"/>
<path d="M37.6343 20.3804L39.1414 27.8015H37.9294L37.5466 25.9025H35.9518L35.5771 27.8015H34.3252L35.8322 20.3804H37.6343ZM36.1273 24.8775H37.3233L36.7253 21.6993L36.1273 24.8775Z" fill="white"/>
<path d="M40.0901 20.3804H43.3753V21.3497H41.3101V23.503H43.2557V24.4326H41.3101V26.8163H43.455V27.8015H40.106L40.0901 20.3804Z" fill="white"/>
<path d="M46.5568 20.3804V26.4031C46.5746 26.7396 46.5088 27.0752 46.3654 27.3804C46.2843 27.5164 46.1666 27.6271 46.0258 27.7001C45.8849 27.7731 45.7264 27.8054 45.568 27.7936H44.2922V26.8083H44.8345C45.0657 26.8083 45.2092 26.7447 45.273 26.6256C45.3289 26.4349 45.3505 26.2358 45.3368 26.0376V20.3804H46.5568Z" fill="white"/>
<path d="M47.8169 20.3804H51.1021V21.3497H49.0209V23.503H50.9745V24.4326H49.0209V26.8163H51.1659V27.8015H47.8169V20.3804Z" fill="white"/>
<path d="M56.6358 25.4099C56.6627 25.9833 56.5448 26.5542 56.2929 27.0705C56.0594 27.345 55.7687 27.5656 55.4409 27.7169C55.1132 27.8682 54.7564 27.9465 54.3952 27.9465C54.034 27.9465 53.6771 27.8682 53.3494 27.7169C53.0217 27.5656 52.731 27.345 52.4974 27.0705C52.2412 26.5559 52.1256 25.9831 52.1625 25.4099V22.6687C52.1239 22.1183 52.2399 21.568 52.4974 21.0796C52.7064 20.7794 52.9935 20.5416 53.3278 20.3919C53.6622 20.2421 54.0312 20.1859 54.3952 20.2294C54.7589 20.1894 55.1267 20.2471 55.4604 20.3966C55.7941 20.5461 56.0816 20.7819 56.2929 21.0796C56.5435 21.5707 56.6617 22.1183 56.6358 22.6687V25.4099ZM55.4398 22.2714C55.4499 22.0082 55.3619 21.7506 55.1926 21.5483C55.0957 21.4333 54.9731 21.3425 54.8346 21.2831C54.6961 21.2238 54.5456 21.1976 54.3952 21.2067C54.2436 21.2008 54.0927 21.23 53.9543 21.292C53.8159 21.3541 53.6939 21.4472 53.5978 21.5642C53.4427 21.7671 53.3612 22.0164 53.3666 22.2714V25.7515C53.3629 26.0322 53.4404 26.3081 53.5898 26.5461C53.6862 26.6759 53.8118 26.7814 53.9565 26.854C54.1012 26.9267 54.261 26.9646 54.4231 26.9646C54.5851 26.9646 54.7449 26.9267 54.8897 26.854C55.0344 26.7814 55.16 26.6759 55.2564 26.5461C55.395 26.2876 55.4611 25.9966 55.4477 25.7039L55.4398 22.2714Z" fill="white"/>
<path d="M62.0818 20.3804V27.8015H60.3674L58.9401 22.1602V27.8015H57.7361V20.3804H59.3308L60.8379 26.0297V20.3804H62.0818Z" fill="white"/>
<path d="M70.9646 25.4099C70.9915 25.9833 70.8736 26.5543 70.6218 27.0705C70.3882 27.3451 70.0975 27.5656 69.7698 27.7169C69.442 27.8682 69.0852 27.9466 68.724 27.9466C68.3628 27.9466 68.006 27.8682 67.6782 27.7169C67.3505 27.5656 67.0598 27.3451 66.8262 27.0705C66.57 26.556 66.4545 25.9832 66.4913 25.4099V22.6687C66.4604 22.1188 66.5759 21.5706 66.8262 21.0796C67.0642 20.812 67.3563 20.5979 67.6835 20.4512C68.0106 20.3045 68.3653 20.2286 68.724 20.2286C69.0827 20.2286 69.4374 20.3045 69.7645 20.4512C70.0917 20.5979 70.3838 20.812 70.6218 21.0796C70.8778 21.5688 70.9962 22.1179 70.9646 22.6687V25.4099ZM69.7765 22.2714C69.7831 22.0088 69.6954 21.7524 69.5293 21.5484C69.4313 21.4347 69.3085 21.3449 69.1703 21.2857C69.0321 21.2265 68.8822 21.1995 68.732 21.2067C68.5802 21.1995 68.4289 21.2282 68.2903 21.2903C68.1517 21.3524 68.0299 21.4463 67.9346 21.5643C67.776 21.7653 67.694 22.0159 67.7033 22.2714V25.7516C67.6959 26.0328 67.7737 26.3097 67.9266 26.5461C68.0118 26.6789 68.13 26.7874 68.2697 26.8612C68.4094 26.935 68.5659 26.9715 68.724 26.9672C68.8823 26.9731 69.0394 26.9372 69.1794 26.8633C69.3194 26.7894 69.4374 26.68 69.5214 26.5461C69.6647 26.2891 69.7337 25.9976 69.7207 25.7039L69.7765 22.2714Z" fill="white"/>
<path d="M72.1609 20.3803H74.553C75.1038 20.3208 75.6598 20.4288 76.1478 20.6902C76.2948 20.8458 76.4054 21.032 76.4716 21.2354C76.5378 21.4387 76.5579 21.6541 76.5305 21.8662V22.4859C76.5583 22.8001 76.4917 23.1154 76.3392 23.3917C76.1219 23.6058 75.8433 23.7474 75.5418 23.7969C75.8976 23.8426 76.2226 24.0216 76.4508 24.2975C76.6461 24.6197 76.7353 24.9948 76.7059 25.3701V26.0693C76.7407 26.3245 76.7188 26.5842 76.6416 26.83C76.5644 27.0758 76.434 27.3017 76.2594 27.4916C75.7693 27.7471 75.2152 27.8548 74.6647 27.8015H72.2008L72.1609 20.3803ZM73.357 23.4314H73.7238H74.2819C74.4715 23.4394 74.6614 23.4261 74.8481 23.3917C74.9669 23.3756 75.0766 23.3195 75.159 23.2328C75.2293 23.1195 75.2729 22.9918 75.2866 22.8593C75.2866 22.7322 75.2866 22.5097 75.2866 22.2078C75.2958 22.0301 75.2715 21.8522 75.2148 21.6834C75.1957 21.6233 75.1636 21.568 75.121 21.5213C75.0783 21.4747 75.026 21.4378 74.9677 21.4133C74.7918 21.3468 74.6055 21.3118 74.4175 21.31C74.258 21.31 73.939 21.31 73.4686 21.31H73.3251L73.357 23.4314ZM73.357 26.8401H73.6839H74.6088C74.7897 26.836 74.9682 26.7983 75.1351 26.7288C75.1969 26.7026 75.2524 26.6635 75.2978 26.6142C75.3432 26.5649 75.3774 26.5064 75.3982 26.4428C75.4479 26.2699 75.4694 26.0901 75.462 25.9104V25.1477C75.4685 24.9758 75.447 24.8041 75.3982 24.6391C75.3394 24.5204 75.2364 24.4292 75.1112 24.3849C74.9092 24.3248 74.7 24.2927 74.4892 24.2895C74.3058 24.2895 73.947 24.2895 73.4048 24.2895H73.357V26.8401Z" fill="white"/>
<path d="M82.1359 22.613H80.9079V21.9694C80.9306 21.8529 80.9228 21.7326 80.8852 21.62C80.8477 21.5074 80.7816 21.4063 80.6935 21.3264C80.6054 21.2466 80.4982 21.1908 80.3821 21.1642C80.266 21.1377 80.1451 21.1413 80.0308 21.1749C79.8892 21.1574 79.7455 21.1688 79.6084 21.2084C79.4713 21.248 79.3437 21.315 79.2334 21.4053C79.1195 21.5997 79.0693 21.8247 79.0899 22.0489C79.0796 22.1625 79.0796 22.2769 79.0899 22.3905C79.1125 22.4862 79.1561 22.5758 79.2175 22.6527C79.3169 22.7568 79.4295 22.8476 79.5524 22.9229C79.68 23.0023 79.8793 23.1295 80.1664 23.2884L80.5571 23.5029C80.9558 23.7254 81.2269 23.8922 81.3545 23.9955C81.5516 24.1226 81.729 24.2779 81.8807 24.4564C82.0201 24.631 82.1182 24.8347 82.1678 25.0523C82.2319 25.3472 82.2614 25.6485 82.2555 25.9501C82.281 26.2276 82.248 26.5073 82.1587 26.7714C82.0695 27.0354 81.9259 27.278 81.7372 27.4836C81.2221 27.8111 80.6258 27.9898 80.0148 27.9996C79.4038 28.0094 78.8021 27.85 78.2766 27.5392C78.1313 27.3835 78.0208 27.199 77.952 26.9977C77.8833 26.7964 77.8581 26.5829 77.8779 26.3712V25.3224H79.0899V26.117C79.0687 26.3437 79.1189 26.5715 79.2334 26.7685C79.34 26.8655 79.4667 26.9379 79.6045 26.9804C79.7424 27.023 79.8879 27.0348 80.0308 27.0148C80.1759 27.0269 80.3219 27.0083 80.4592 26.9604C80.5966 26.9125 80.7223 26.8363 80.8282 26.7367C80.9688 26.5527 81.0369 26.3238 81.0196 26.0931C81.0337 25.7805 80.9409 25.4724 80.7564 25.2191C80.3731 24.8276 79.9288 24.5003 79.4408 24.2498C78.9887 24.0089 78.5705 23.7097 78.1969 23.3599C77.9213 22.9951 77.7855 22.5443 77.8141 22.0886C77.7943 21.8309 77.8304 21.5719 77.9198 21.3293C78.0092 21.0866 78.1499 20.866 78.3324 20.6822C78.7869 20.3337 79.3556 20.1665 79.9272 20.2135C80.4964 20.1786 81.0656 20.2822 81.5857 20.5154C81.7367 20.5865 81.8641 20.699 81.9531 20.8397C82.0421 20.9805 82.0889 21.1436 82.0881 21.3099L82.1359 22.613Z" fill="white"/>
<path d="M83.4597 20.3804H86.7609V21.3497H84.6797V23.503H86.6333V24.4326H84.6797V26.8163H86.8326V27.8015H83.4836L83.4597 20.3804Z" fill="white"/>
<path d="M87.9409 20.3804H89.7749C90.3767 20.35 90.9791 20.4281 91.553 20.6109C91.7465 20.6819 91.912 20.8128 92.0254 20.9843C92.1388 21.1559 92.194 21.3592 92.183 21.5643V22.5734C92.2069 22.8821 92.1491 23.1917 92.0155 23.4712C91.9046 23.603 91.7685 23.7115 91.6152 23.7906C91.462 23.8697 91.2945 23.9178 91.1225 23.9321C91.3399 24.0128 91.5442 24.1253 91.7285 24.2658C91.8668 24.3659 91.9767 24.5001 92.0474 24.6551C92.1161 24.8027 92.1567 24.9616 92.167 25.1239C92.1776 25.3171 92.1776 25.5107 92.167 25.7039V27.8016H90.955V25.1478C90.9686 25.013 90.9686 24.8773 90.955 24.7425C90.9254 24.6326 90.8538 24.5385 90.7557 24.4803C90.5852 24.4013 90.4012 24.3554 90.2135 24.3453C89.8601 24.327 89.506 24.3296 89.1529 24.3532V27.8334H87.9569L87.9409 20.3804ZM89.1529 23.3997H90.2374C90.4035 23.3962 90.569 23.3776 90.7317 23.3441C90.7747 23.3314 90.8145 23.31 90.8488 23.2813C90.8831 23.2526 90.9111 23.2172 90.9311 23.1773C90.9686 23.0757 90.9849 22.9675 90.9789 22.8594V21.8662C90.9887 21.7521 90.9695 21.6374 90.9231 21.5325C90.9006 21.4908 90.8687 21.4548 90.83 21.4272C90.7913 21.3997 90.7468 21.3813 90.6999 21.3736C90.5257 21.3275 90.3458 21.3061 90.1656 21.3101H89.1529V23.3997Z" fill="white"/>
<path d="M98.251 20.3804L96.7201 27.8015H94.7346L93.2036 20.3804H94.4236L95.7074 26.7368L95.8031 26.2601C95.9865 25.3861 96.114 24.7425 96.2018 24.3134C96.3533 23.5745 96.4968 22.8912 96.6164 22.2714L96.9912 20.3883L98.251 20.3804Z" fill="white"/>
<path d="M102.302 20.3804L103.809 27.8015H102.605L102.214 25.9025H100.619L100.244 27.8015H99.0244L100.539 20.3804H102.302ZM100.795 24.8855H102.015L101.409 21.7073L100.795 24.8855Z" fill="white"/>
<path d="M108.649 20.3804V21.3338H107.054V27.7936H105.826V21.3338H104.47V20.3804H108.649Z" fill="white"/>
<path d="M113.943 25.4099C113.97 25.9833 113.852 26.5543 113.601 27.0705C113.367 27.3451 113.076 27.5656 112.749 27.7169C112.421 27.8682 112.064 27.9466 111.703 27.9466C111.342 27.9466 110.985 27.8682 110.657 27.7169C110.329 27.5656 110.039 27.3451 109.805 27.0705C109.549 26.556 109.433 25.9832 109.47 25.4099V22.6687C109.439 22.1188 109.555 21.5706 109.805 21.0796C110.043 20.812 110.335 20.5979 110.662 20.4512C110.989 20.3045 111.344 20.2286 111.703 20.2286C112.061 20.2286 112.416 20.3045 112.743 20.4512C113.07 20.5979 113.363 20.812 113.601 21.0796C113.857 21.5688 113.975 22.1179 113.943 22.6687V25.4099ZM112.755 22.2714C112.762 22.0088 112.674 21.7524 112.508 21.5484C112.41 21.4347 112.287 21.3449 112.149 21.2857C112.011 21.2265 111.861 21.1995 111.711 21.2067C111.559 21.1995 111.408 21.2282 111.269 21.2903C111.131 21.3524 111.009 21.4463 110.913 21.5643C110.755 21.7653 110.673 22.0159 110.682 22.2714V25.7516C110.675 26.0328 110.752 26.3097 110.905 26.5461C110.991 26.6789 111.109 26.7874 111.248 26.8612C111.388 26.935 111.545 26.9715 111.703 26.9672C111.861 26.9731 112.018 26.9372 112.158 26.8633C112.298 26.7894 112.416 26.68 112.5 26.5461C112.643 26.2891 112.712 25.9976 112.699 25.7039L112.755 22.2714Z" fill="white"/>
<path d="M115.116 20.3804H116.958C117.559 20.35 118.162 20.4281 118.736 20.6109C118.929 20.6819 119.095 20.8128 119.208 20.9843C119.321 21.1559 119.377 21.3592 119.366 21.5643V22.5734C119.389 22.8821 119.332 23.1917 119.198 23.4712C119.087 23.603 118.951 23.7115 118.798 23.7906C118.645 23.8697 118.477 23.9178 118.305 23.9321C118.523 24.0128 118.727 24.1253 118.911 24.2658C119.047 24.3681 119.157 24.5017 119.23 24.6551C119.299 24.8027 119.339 24.9616 119.35 25.1239C119.36 25.3171 119.36 25.5107 119.35 25.7039V27.8016H118.138V25.1478C118.143 25.0115 118.13 24.8751 118.098 24.7425C118.086 24.6879 118.063 24.6363 118.03 24.5911C117.997 24.5459 117.955 24.5082 117.906 24.4803C117.736 24.4013 117.552 24.3554 117.364 24.3453C117.012 24.3086 116.658 24.2927 116.304 24.2976V27.7777H115.1L115.116 20.3804ZM116.32 23.4077H117.404C117.568 23.4048 117.73 23.3862 117.89 23.3521C117.935 23.3403 117.976 23.3194 118.012 23.2906C118.048 23.2619 118.077 23.226 118.098 23.1852C118.135 23.0836 118.152 22.9755 118.146 22.8674V21.8662C118.151 21.7523 118.132 21.6385 118.09 21.5325C118.067 21.4908 118.035 21.4548 117.997 21.4272C117.958 21.3997 117.913 21.3813 117.867 21.3736C117.692 21.3275 117.512 21.3061 117.332 21.3101H116.32V23.4077Z" fill="white"/>
<path d="M124.804 20.3804L123.097 25.1477V27.7777H121.901V25.1477L120.251 20.3804H121.487C121.604 20.7829 121.739 21.2517 121.893 21.7867L122.252 23.066L122.499 23.94L123.576 20.3804H124.804Z" fill="white"/>
<path d="M0 5.60583L9.24043 9.24043L8.52336 0C8.52336 0 5.11247 0.165209 5.42255 4.22033C5.44193 4.22033 2.2946 2.27537 0 5.60583Z" fill="#0BAF4E"/>
<path d="M19.6359 5.60583L10.3955 9.24043L11.109 0C11.109 0 14.5213 0.165209 14.2111 4.22033C14.1956 4.22033 17.3442 2.27538 19.6359 5.60583Z" fill="#0BAF4E"/>
<path d="M2.98269 17.3258L9.24043 9.68187L0.0751254 7.50781C0.0751254 7.50781 -0.775775 10.7959 3.24978 11.748C3.24978 11.7364 0.433801 14.1225 2.98269 17.3258Z" fill="#0BAF4E"/>
<path d="M15.0156 18.7377L9.7983 10.3955L4.62012 18.3016C4.62012 18.3016 7.48689 20.1597 9.74355 16.6825C9.74355 16.6863 11.0811 20.099 15.0156 18.7377Z" fill="#0BAF4E"/>
<path d="M16.6585 17.3258L10.3955 9.68572L19.5608 7.50781C19.5608 7.50781 20.4125 10.7959 16.3797 11.748C16.3873 11.7403 19.2057 14.1264 16.6585 17.3258Z" fill="#0BAF4E"/>
</svg>
