<svg width="223" height="61" viewBox="0 0 223 61" fill="none" xmlns="http://www.w3.org/2000/svg">
<path d="M16 18.5647L30.1176 24.1176L29.0221 10C29.0221 10 23.8109 10.2524 24.2846 16.4479C24.3143 16.4479 19.5057 13.4763 16 18.5647Z" fill="#0BAF4E"/>
<path d="M46 18.5647L31.8823 24.1176L32.9724 10C32.9724 10 38.1858 10.2524 37.7119 16.4479C37.6882 16.4479 42.4987 13.4763 46 18.5647Z" fill="#0BAF4E"/>
<path d="M20.557 36.4706L30.1176 24.7921L16.1148 21.4706C16.1148 21.4706 14.8148 26.4941 20.9651 27.9488C20.9651 27.9311 16.6628 31.5766 20.557 36.4706Z" fill="#0BAF4E"/>
<path d="M38.9412 38.6277L30.9701 25.8823L23.0588 37.9614C23.0588 37.9614 27.4387 40.8001 30.8865 35.4877C30.8865 35.4935 32.93 40.7075 38.9412 38.6277Z" fill="#0BAF4E"/>
<path d="M41.451 36.4706L31.8823 24.798L45.8853 21.4706C45.8853 21.4706 47.1864 26.4941 41.0251 27.9488C41.0367 27.937 45.3426 31.5825 41.451 36.4706Z" fill="#0BAF4E"/>
<path d="M63.0532 13.2169H59.2523V28.4153H65.0755V10.1214H68.3648V19.5294H70.8013V10.1214H74.0906V33.8537H70.8013V22.2364H68.3648V33.8537H65.0755V31.0496H58.7772C58.3747 31.0738 57.9717 31.0115 57.5955 30.867C57.2193 30.7225 56.8786 30.4991 56.5965 30.2119C56.1539 29.5958 55.9465 28.8425 56.0118 28.0876V10.6191H63.1142L63.0532 13.2169Z" fill="#284271"/>
<path d="M90.6587 10.6191V13.2776H86.3583C86.3012 15.4309 86.9093 17.5497 88.1004 19.3473C89.0609 20.7347 90.3386 21.8748 91.8282 22.6734L90.3419 24.7978C89.2041 24.1814 88.1308 23.4535 87.1379 22.6249C86.1874 21.8564 85.365 20.9428 84.7015 19.9178C84.0437 20.9471 83.2205 21.8617 82.265 22.6249C81.2972 23.4337 80.2573 24.1529 79.1584 24.7735L77.8184 22.6492C79.3071 21.8774 80.5671 20.7306 81.4731 19.323C82.5794 17.4947 83.1335 15.3873 83.069 13.2533H79.0001V10.6191H90.6587ZM83.3492 30.8917H96.7499V33.5503H82.9837C82.18 33.6234 81.3764 33.4082 80.7178 32.9433C80.4785 32.6711 80.2977 32.353 80.1866 32.0085C80.0756 31.664 80.0366 31.3004 80.0721 30.9403V25.9268H83.3614L83.3492 30.8917ZM96.555 27.3956H93.2657V18.4611H89.611V15.7783H93.2657V10.1214H96.555V27.3956Z" fill="#284271"/>
<path d="M108.652 10.3156V18.9345C108.753 21.3697 109.506 23.7337 110.833 25.7811C111.756 27.4069 112.9 28.8979 114.232 30.2119L112.185 32.1057C109.546 29.9473 107.738 26.9446 107.068 23.6082C106.669 25.435 105.916 27.1668 104.851 28.7067C104.001 29.9728 102.971 31.1095 101.793 32.0814L100.039 30.2119C101.346 28.9627 102.437 27.5066 103.268 25.9025C104.546 23.7938 105.267 21.3964 105.363 18.9345V10.3156H108.652ZM119.361 10.1214V33.8537H116.071V10.1214H119.361Z" fill="#284271"/>
<path d="M135.697 10.6191V23.5839H127.267C126.891 23.6137 126.513 23.5654 126.156 23.4421C125.8 23.3188 125.473 23.1232 125.196 22.8677C124.716 22.3094 124.476 21.5858 124.526 20.8525V10.6191H135.697ZM128.912 30.8917H142.312V33.5503H128.534C127.73 33.6192 126.928 33.4043 126.268 32.9433C126.031 32.6696 125.852 32.3513 125.741 32.0072C125.63 31.6631 125.59 31.3003 125.622 30.9403V25.9268H128.912V30.8917ZM127.803 13.2776V21.0225H132.432V13.2776H127.803ZM142.13 10.1214V27.1771H138.852V10.1821L142.13 10.1214Z" fill="#284271"/>
<path d="M151.315 12.003V10H154.604V12.003H159.051V14.6615H154.604C154.547 16.4975 155.067 18.3055 156.091 19.8328C157.039 21.1614 158.368 22.1728 159.904 22.7341L158.43 24.7857C157.2 24.2573 156.071 23.5223 155.092 22.6127C154.168 21.8232 153.417 20.852 152.887 19.76C152.343 20.8671 151.571 21.8475 150.621 22.637C149.617 23.5447 148.468 24.2791 147.222 24.8099L146.004 22.7341C147.469 22.1356 148.735 21.1386 149.658 19.8571C150.751 18.3475 151.316 16.5221 151.266 14.6615H146.82V12.003H151.315ZM151.693 30.8553H165.094V33.5138H151.315C150.511 33.587 149.708 33.3718 149.049 32.9069C148.81 32.6347 148.629 32.3166 148.518 31.9721C148.407 31.6275 148.368 31.264 148.404 30.9039V25.9268H151.693V30.8553ZM164.899 27.4442H161.609V19.5536H157.869V16.9194H161.609V10.1457H164.899V27.4442Z" fill="#284271"/>
<path d="M188.593 24.4458H181.211V28.3182H177.934V24.4458H169.309V21.7145H188.569L188.593 24.4458ZM187.497 10.6191V19.3716H173.134C172.761 19.3986 172.386 19.3477 172.034 19.2223C171.681 19.0969 171.359 18.8997 171.087 18.6432C170.603 18.0826 170.362 17.3535 170.417 16.616V10.6191H187.497ZM173.706 30.8918H187.497V33.5503H173.329C172.525 33.6192 171.723 33.4044 171.063 32.9433C170.826 32.6697 170.647 32.3513 170.536 32.0072C170.425 31.6631 170.385 31.3003 170.417 30.9403V26.3638H173.706V30.8918ZM173.706 13.2776V16.7131H184.208V13.2776H173.706Z" fill="#284271"/>
<path d="M199.765 13.2169H195.952V28.4153H201.787V10.1214H205.076V19.5294H207.513V10.1214H210.802V33.8537H207.513V22.2364H205.076V33.8537H201.787V31.0496H195.489C195.09 31.08 194.689 31.0254 194.313 30.8894C193.937 30.7533 193.594 30.5389 193.308 30.2605C192.832 29.6398 192.603 28.8663 192.662 28.0876V10.6191H199.765V13.2169Z" fill="#284271"/>
<path d="M60 41.1373H63.2771C64.2533 41.0506 65.2347 41.2311 66.1156 41.6592C66.3759 41.8862 66.5772 42.1726 66.7023 42.4939C66.8275 42.8152 66.8728 43.1619 66.8344 43.5044V49.7076C66.875 50.0972 66.8283 50.491 66.6977 50.8605C66.5671 51.2299 66.3558 51.5659 66.0791 51.8441C65.2248 52.3391 64.2366 52.5555 63.2527 52.4632H60V41.1373ZM61.8152 50.9701C62.6923 50.9701 63.2893 50.9701 63.606 50.9701C63.9369 50.9504 64.2602 50.8637 64.5562 50.7152C64.6575 50.6451 64.7432 50.5551 64.8082 50.4507C64.8732 50.3463 64.9159 50.2297 64.9339 50.1082C65.0019 49.7073 65.0304 49.3007 65.0192 48.8943V44.1842C65.0291 43.8623 65.0004 43.5404 64.9339 43.2252C64.9055 43.1206 64.8564 43.0226 64.7894 42.9371C64.7225 42.8517 64.6391 42.7804 64.5441 42.7275C64.2369 42.6095 63.9108 42.5478 63.5816 42.5454H61.8152V50.9701Z" fill="#DADADA"/>
<path d="M73.4981 41.1373L75.8006 52.4754H73.9489L73.3641 49.5741H70.9276L70.355 52.4754H68.4424L70.7449 41.1373H73.4981ZM71.1956 48.0081H73.023L72.1093 43.1524L71.1956 48.0081Z" fill="#DADADA"/>
<path d="M77.2504 41.1373H82.2695V42.6183H79.1143V45.908H82.0868V47.3283H79.1143V50.9701H82.3914V52.4754H77.2747L77.2504 41.1373Z" fill="#DADADA"/>
<path d="M87.1302 41.1373V50.3389C87.1574 50.853 87.057 51.3658 86.8378 51.832C86.7138 52.0397 86.5341 52.2089 86.3189 52.3204C86.1037 52.4319 85.8615 52.4814 85.6196 52.4632H83.6704V50.958H84.4988C84.8521 50.958 85.0714 50.8609 85.1689 50.6788C85.2543 50.3874 85.2873 50.0833 85.2663 49.7805V41.1373H87.1302Z" fill="#DADADA"/>
<path d="M89.0552 41.1373H94.0743V42.6183H90.8947V45.908H93.8794V47.3283H90.8947V50.9701H94.1718V52.4754H89.0552V41.1373Z" fill="#DADADA"/>
<path d="M102.529 48.8214C102.57 49.6975 102.39 50.5698 102.005 51.3585C101.648 51.778 101.204 52.115 100.703 52.3461C100.203 52.5773 99.6576 52.697 99.1058 52.697C98.5539 52.697 98.0087 52.5773 97.508 52.3461C97.0073 52.115 96.5631 51.778 96.2063 51.3585C95.8148 50.5724 95.6383 49.6973 95.6947 48.8214V44.6334C95.6357 43.7924 95.8129 42.9518 96.2063 42.2055C96.5256 41.7469 96.9642 41.3837 97.475 41.1548C97.9859 40.926 98.5496 40.8402 99.1058 40.9066C99.6614 40.8455 100.223 40.9337 100.733 41.1621C101.243 41.3905 101.682 41.7508 102.005 42.2055C102.388 42.9559 102.569 43.7925 102.529 44.6334V48.8214ZM100.702 44.0264C100.717 43.6243 100.583 43.2307 100.324 42.9217C100.176 42.7459 99.9887 42.6072 99.7771 42.5165C99.5656 42.4259 99.3356 42.3859 99.1058 42.3997C98.8741 42.3907 98.6436 42.4353 98.4322 42.5301C98.2208 42.6249 98.0343 42.7673 97.8875 42.946C97.6506 43.256 97.5261 43.6368 97.5342 44.0264V49.3434C97.5286 49.7723 97.647 50.1937 97.8753 50.5573C98.0226 50.7557 98.2145 50.9168 98.4356 51.0279C98.6567 51.1389 98.9008 51.1967 99.1484 51.1967C99.396 51.1967 99.6401 51.1389 99.8612 51.0279C100.082 50.9168 100.274 50.7557 100.421 50.5573C100.633 50.1625 100.734 49.7179 100.714 49.2706L100.702 44.0264Z" fill="#DADADA"/>
<path d="M110.85 41.1373V52.4754H108.23L106.05 43.8565V52.4754H104.21V41.1373H106.647L108.949 49.7683V41.1373H110.85Z" fill="#DADADA"/>
<path d="M124.421 48.8215C124.462 49.6975 124.282 50.5698 123.897 51.3586C123.54 51.778 123.096 52.115 122.595 52.3462C122.095 52.5773 121.549 52.697 120.998 52.697C120.446 52.697 119.9 52.5773 119.4 52.3462C118.899 52.115 118.455 51.778 118.098 51.3586C117.707 50.5724 117.53 49.6973 117.586 48.8215V44.6334C117.539 43.7933 117.716 42.9557 118.098 42.2055C118.462 41.7968 118.908 41.4696 119.408 41.2454C119.908 41.0213 120.449 40.9055 120.998 40.9055C121.546 40.9055 122.087 41.0213 122.587 41.2454C123.087 41.4696 123.533 41.7968 123.897 42.2055C124.288 42.9529 124.469 43.7919 124.421 44.6334V48.8215ZM122.606 44.0264C122.616 43.6252 122.482 43.2335 122.228 42.9218C122.078 42.7482 121.89 42.6109 121.679 42.5204C121.468 42.43 121.239 42.3887 121.01 42.3998C120.778 42.3888 120.547 42.4326 120.335 42.5275C120.123 42.6224 119.937 42.7658 119.791 42.946C119.549 43.2532 119.424 43.636 119.438 44.0264V49.3434C119.427 49.7731 119.546 50.1961 119.779 50.5574C119.909 50.7602 120.09 50.926 120.303 51.0387C120.517 51.1515 120.756 51.2073 120.998 51.2008C121.239 51.2097 121.479 51.155 121.693 51.042C121.907 50.929 122.087 50.7619 122.216 50.5574C122.435 50.1648 122.54 49.7194 122.52 49.2706L122.606 44.0264Z" fill="#DADADA"/>
<path d="M126.248 41.1373H129.903C130.745 41.0463 131.594 41.2113 132.34 41.6107C132.564 41.8485 132.733 42.133 132.834 42.4436C132.935 42.7543 132.966 43.0834 132.924 43.4073V44.3542C132.967 44.8342 132.865 45.3159 132.632 45.7381C132.3 46.0652 131.874 46.2815 131.414 46.3572C131.957 46.427 132.454 46.7004 132.802 47.122C133.101 47.6143 133.237 48.1874 133.192 48.7608V49.829C133.245 50.2189 133.212 50.6157 133.094 50.9912C132.976 51.3667 132.777 51.7118 132.51 52.002C131.761 52.3923 130.915 52.5568 130.074 52.4754H126.309L126.248 41.1373ZM128.076 45.7988H128.636H129.489C129.779 45.811 130.069 45.7906 130.354 45.7381C130.535 45.7135 130.703 45.6278 130.829 45.4953C130.936 45.3222 131.003 45.1272 131.024 44.9248C131.024 44.7305 131.024 44.3906 131.024 43.9293C131.038 43.6578 131.001 43.386 130.914 43.1281C130.885 43.0363 130.836 42.9518 130.771 42.8805C130.706 42.8093 130.626 42.7529 130.537 42.7154C130.268 42.6138 129.983 42.5604 129.696 42.5576C129.452 42.5576 128.965 42.5576 128.246 42.5576H128.027L128.076 45.7988ZM128.076 51.0065H128.575H129.988C130.265 51.0003 130.537 50.9427 130.792 50.8366C130.887 50.7966 130.972 50.7369 131.041 50.6615C131.11 50.5861 131.163 50.4968 131.194 50.3996C131.27 50.1354 131.303 49.8608 131.292 49.5862V48.4209C131.302 48.1584 131.269 47.896 131.194 47.644C131.105 47.4625 130.947 47.3231 130.756 47.2555C130.447 47.1637 130.128 47.1147 129.806 47.1098C129.525 47.1098 128.977 47.1098 128.149 47.1098H128.076V51.0065Z" fill="#DADADA"/>
<path d="M141.488 44.5484H139.612V43.5651C139.647 43.3871 139.635 43.2033 139.578 43.0312C139.52 42.8592 139.419 42.7047 139.285 42.5828C139.15 42.4608 138.986 42.3755 138.809 42.3349C138.632 42.2944 138.447 42.3 138.272 42.3512C138.056 42.3245 137.836 42.3419 137.627 42.4025C137.417 42.463 137.222 42.5653 137.054 42.7032C136.88 43.0002 136.803 43.344 136.835 43.6865C136.819 43.8602 136.819 44.0349 136.835 44.2085C136.869 44.3547 136.936 44.4915 137.03 44.6091C137.182 44.7682 137.354 44.9069 137.541 45.0218C137.736 45.1432 138.041 45.3375 138.479 45.5803L139.076 45.908C139.685 46.2479 140.1 46.5028 140.295 46.6606C140.596 46.8547 140.867 47.092 141.099 47.3647C141.311 47.6315 141.461 47.9427 141.537 48.2752C141.635 48.7257 141.68 49.186 141.671 49.6469C141.71 50.0708 141.66 50.4982 141.523 50.9016C141.387 51.305 141.168 51.6757 140.879 51.9898C140.092 52.4902 139.181 52.7631 138.248 52.7781C137.314 52.7931 136.395 52.5496 135.592 52.0748C135.37 51.8368 135.201 51.5549 135.096 51.2474C134.991 50.9399 134.953 50.6137 134.983 50.2903V48.6879H136.835V49.9018C136.802 50.2483 136.879 50.5962 137.054 50.8973C137.217 51.0454 137.41 51.156 137.621 51.221C137.831 51.2861 138.054 51.304 138.272 51.2736C138.494 51.292 138.717 51.2636 138.927 51.1904C139.137 51.1172 139.329 51.0008 139.49 50.8487C139.705 50.5676 139.809 50.2178 139.783 49.8654C139.804 49.3878 139.663 48.917 139.381 48.5301C138.795 47.9319 138.116 47.4318 137.371 47.0491C136.68 46.681 136.041 46.2239 135.47 45.6895C135.049 45.1322 134.842 44.4434 134.885 43.7472C134.855 43.3534 134.91 42.9578 135.047 42.5871C135.184 42.2164 135.399 41.8792 135.677 41.5986C136.372 41.066 137.241 40.8106 138.114 40.8823C138.984 40.8291 139.853 40.9874 140.648 41.3436C140.878 41.4522 141.073 41.6241 141.209 41.8392C141.345 42.0542 141.417 42.3034 141.415 42.5576L141.488 44.5484Z" fill="#DADADA"/>
<path d="M143.511 41.1373H148.554V42.6183H145.375V45.908H148.359V47.3283H145.375V50.9701H148.664V52.4754H143.547L143.511 41.1373Z" fill="#DADADA"/>
<path d="M150.357 41.1373H153.159C154.079 41.0908 154.999 41.2101 155.876 41.4893C156.172 41.5978 156.425 41.7978 156.598 42.06C156.771 42.3221 156.855 42.6326 156.839 42.9461V44.4877C156.875 44.9594 156.787 45.4324 156.583 45.8595C156.413 46.0608 156.205 46.2266 155.971 46.3475C155.737 46.4683 155.481 46.5417 155.218 46.5636C155.55 46.6869 155.862 46.8587 156.144 47.0734C156.355 47.2264 156.523 47.4313 156.631 47.6682C156.736 47.8936 156.798 48.1365 156.814 48.3845C156.83 48.6796 156.83 48.9755 156.814 49.2706V52.4754H154.962V48.4209C154.983 48.215 154.983 48.0076 154.962 47.8018C154.917 47.6338 154.808 47.4901 154.658 47.4012C154.397 47.2804 154.116 47.2104 153.829 47.1948C153.29 47.1669 152.749 47.1709 152.209 47.2069V52.524H150.382L150.357 41.1373ZM152.209 45.7502H153.866C154.12 45.7448 154.373 45.7164 154.621 45.6653C154.687 45.6458 154.748 45.6132 154.8 45.5693C154.853 45.5255 154.895 45.4713 154.926 45.4103C154.983 45.2551 155.008 45.0899 154.999 44.9248V43.4073C155.014 43.233 154.985 43.0576 154.914 42.8975C154.879 42.8337 154.831 42.7787 154.771 42.7366C154.712 42.6945 154.644 42.6665 154.573 42.6547C154.306 42.5842 154.032 42.5515 153.756 42.5576H152.209V45.7502Z" fill="#DADADA"/>
<path d="M166.109 41.1373L163.77 52.4754H160.737L158.398 41.1373H160.262L162.223 50.8487L162.369 50.1204C162.649 48.785 162.844 47.8017 162.978 47.1462C163.21 46.0173 163.429 44.9733 163.612 44.0264L164.184 41.1494L166.109 41.1373Z" fill="#DADADA"/>
<path d="M172.298 41.1373L174.6 52.4754H172.761L172.164 49.5741H169.728L169.155 52.4754H167.291L169.606 41.1373H172.298ZM169.996 48.0203H171.859L170.934 43.1645L169.996 48.0203Z" fill="#DADADA"/>
<path d="M181.995 41.1373V42.594H179.559V52.4632H177.683V42.594H175.612V41.1373H181.995Z" fill="#DADADA"/>
<path d="M190.084 48.8215C190.125 49.6975 189.945 50.5698 189.561 51.3586C189.204 51.778 188.76 52.115 188.259 52.3462C187.758 52.5773 187.213 52.697 186.661 52.697C186.109 52.697 185.564 52.5773 185.063 52.3462C184.563 52.115 184.118 51.778 183.762 51.3586C183.37 50.5724 183.194 49.6973 183.25 48.8215V44.6334C183.203 43.7933 183.379 42.9557 183.762 42.2055C184.125 41.7968 184.572 41.4696 185.071 41.2454C185.571 41.0213 186.113 40.9055 186.661 40.9055C187.209 40.9055 187.751 41.0213 188.251 41.2454C188.751 41.4696 189.197 41.7968 189.561 42.2055C189.952 42.9529 190.133 43.7919 190.084 44.6334V48.8215ZM188.269 44.0264C188.279 43.6252 188.145 43.2335 187.892 42.9218C187.742 42.7482 187.554 42.6109 187.343 42.5204C187.132 42.43 186.903 42.3887 186.673 42.3998C186.441 42.3888 186.21 42.4326 185.998 42.5275C185.787 42.6224 185.601 42.7658 185.455 42.946C185.213 43.2532 185.088 43.636 185.102 44.0264V49.3434C185.09 49.7731 185.209 50.1961 185.443 50.5574C185.573 50.7602 185.754 50.926 185.967 51.0387C186.181 51.1515 186.42 51.2073 186.661 51.2008C186.903 51.2097 187.143 51.155 187.357 51.042C187.571 50.929 187.751 50.7619 187.879 50.5574C188.098 50.1648 188.204 49.7194 188.184 49.2706L188.269 44.0264Z" fill="#DADADA"/>
<path d="M191.875 41.1373H194.689C195.609 41.0908 196.529 41.2101 197.406 41.4893C197.702 41.5978 197.955 41.7978 198.128 42.06C198.301 42.3221 198.385 42.6326 198.368 42.9461V44.4877C198.405 44.9594 198.317 45.4324 198.113 45.8595C197.943 46.0608 197.735 46.2266 197.501 46.3475C197.267 46.4683 197.011 46.5417 196.748 46.5636C197.08 46.6869 197.392 46.8587 197.674 47.0734C197.882 47.2298 198.049 47.4338 198.161 47.6682C198.266 47.8936 198.328 48.1365 198.344 48.3845C198.36 48.6796 198.36 48.9755 198.344 49.2706V52.4754H196.492V48.4209C196.501 48.2127 196.481 48.0043 196.431 47.8018C196.414 47.7183 196.379 47.6394 196.328 47.5704C196.278 47.5014 196.213 47.4437 196.139 47.4012C195.879 47.2804 195.597 47.2104 195.311 47.1948C194.772 47.1389 194.231 47.1146 193.69 47.122V52.439H191.851L191.875 41.1373ZM193.715 45.7624H195.372C195.621 45.758 195.87 45.7295 196.115 45.6774C196.182 45.6595 196.246 45.6275 196.3 45.5836C196.355 45.5396 196.4 45.4847 196.431 45.4225C196.489 45.2673 196.514 45.102 196.505 44.9369V43.4073C196.513 43.2333 196.484 43.0594 196.419 42.8975C196.385 42.8337 196.336 42.7787 196.277 42.7366C196.218 42.6945 196.15 42.6665 196.078 42.6547C195.812 42.5842 195.537 42.5515 195.262 42.5576H193.715V45.7624Z" fill="#DADADA"/>
<path d="M206.677 41.1373L204.07 48.4209V52.439H202.242V48.4209L199.721 41.1373H201.609C201.788 41.7523 201.995 42.4685 202.23 43.2859L202.778 45.2404L203.156 46.5757L204.801 41.1373H206.677Z" fill="#DADADA"/>
</svg>
