<svg width="30" height="27" viewBox="0 0 30 27" fill="none" xmlns="http://www.w3.org/2000/svg">
<path d="M15.0489 16.5353C10.874 16.5353 6.70432 16.5353 2.52946 16.5353C2.1128 16.5627 1.6989 16.4525 1.3564 16.2229C1.0139 15.9934 0.763383 15.6583 0.646381 15.2733C-0.693506 11.9345 0.0204105 9.46019 3.06231 7.42809C4.00903 6.79709 4.25217 6.18597 4.43841 5.14259C4.99713 1.98762 7.16992 -0.0246149 10.574 0.00022742C12.6433 0.00022742 14.2884 1.13801 15.411 2.83722C15.5295 3.06705 15.7298 3.24853 15.9756 3.34878C16.2213 3.44904 16.4964 3.46144 16.7509 3.38375C19.5496 3.00118 21.8673 3.73652 23.321 6.27044C23.6927 6.88576 23.8839 7.58626 23.8745 8.29757C23.8745 9.48503 24.1487 9.78811 25.3903 9.74836C27.858 9.66887 30.7188 13.5393 29.2289 15.7453C29.105 15.9935 28.9082 16.2015 28.6628 16.3436C28.4174 16.4857 28.134 16.5558 27.8476 16.5452C23.5796 16.5204 19.3168 16.5353 15.0489 16.5353Z" fill="#ABABAB"/>
<path d="M20.0765 18.8472L19.6117 18.6291C19.2009 18.4365 18.7053 18.6001 18.5047 18.9946L17.7873 20.4054C17.5867 20.7999 17.757 21.2759 18.1678 21.4685L18.6327 21.6866C19.0434 21.8793 19.5391 21.7156 19.7397 21.3211L20.4571 19.9103C20.6577 19.5158 20.4873 19.0398 20.0765 18.8472Z" fill="#57C2DA"/>
<path d="M17.5634 22.9014L17.0985 22.6833C16.6877 22.4907 16.1921 22.6543 15.9915 23.0488L15.2741 24.4596C15.0735 24.8541 15.2438 25.3301 15.6546 25.5227L16.1195 25.7408C16.5302 25.9335 17.0259 25.7698 17.2265 25.3753L17.9439 23.9645C18.1445 23.57 17.9741 23.094 17.5634 22.9014Z" fill="#57C2DA"/>
<path d="M10.077 18.7695L9.61218 18.5515C9.2014 18.3588 8.70578 18.5224 8.50517 18.917L7.78776 20.3277C7.58715 20.7222 7.75752 21.1982 8.16829 21.3909L8.63314 21.6089C9.04392 21.8016 9.53954 21.638 9.74015 21.2435L10.4576 19.8327C10.6582 19.4382 10.4878 18.9622 10.077 18.7695Z" fill="#57C2DA"/>
<path d="M7.52649 22.8633L7.06164 22.6452C6.65087 22.4526 6.15524 22.6162 5.95463 23.0107L5.23723 24.4215C5.03661 24.816 5.20698 25.292 5.61775 25.4847L6.08261 25.7027C6.49338 25.8954 6.989 25.7317 7.18962 25.3372L7.90702 23.9265C8.10763 23.532 7.93727 23.056 7.52649 22.8633Z" fill="#57C2DA"/>
<path d="M4.62 20.56C4.62 20.5931 4.59314 20.62 4.56 20.62C4.52686 20.62 4.5 20.5931 4.5 20.56C4.5 20.5269 4.52686 20.5 4.56 20.5C4.59314 20.5 4.62 20.5269 4.62 20.56Z" fill="#F9F9F9" stroke="#ABABAB"/>
<path d="M13.62 20.56C13.62 20.5931 13.5931 20.62 13.56 20.62C13.5269 20.62 13.5 20.5931 13.5 20.56C13.5 20.5269 13.5269 20.5 13.56 20.5C13.5931 20.5 13.62 20.5269 13.62 20.56Z" fill="#F9F9F9" stroke="#ABABAB"/>
<path d="M23.62 19.56C23.62 19.5931 23.5931 19.62 23.56 19.62C23.5269 19.62 23.5 19.5931 23.5 19.56C23.5 19.5269 23.5269 19.5 23.56 19.5C23.5931 19.5 23.62 19.5269 23.62 19.56Z" fill="#F9F9F9" stroke="#ABABAB"/>
<path d="M9.62 23.56C9.62 23.5931 9.59314 23.62 9.56 23.62C9.52686 23.62 9.5 23.5931 9.5 23.56C9.5 23.5269 9.52686 23.5 9.56 23.5C9.59314 23.5 9.62 23.5269 9.62 23.56Z" fill="#F9F9F9" stroke="#ABABAB"/>
<path d="M20.62 23.56C20.62 23.5931 20.5931 23.62 20.56 23.62C20.5269 23.62 20.5 23.5931 20.5 23.56C20.5 23.5269 20.5269 23.5 20.56 23.5C20.5931 23.5 20.62 23.5269 20.62 23.56Z" fill="#F9F9F9" stroke="#ABABAB"/>
</svg>
