<svg width="845" height="405" viewBox="0 0 845 405" fill="none" xmlns="http://www.w3.org/2000/svg">
<path fill-rule="evenodd" clip-rule="evenodd" d="M0.306601 340.793C11.3132 340.793 20.2358 348.778 20.2358 358.628C20.2358 368.478 11.3132 376.463 0.306603 376.463C0.204219 376.463 0.102016 376.463 -1.24746e-06 376.461L0 405L845 405L845 376.461C844.896 376.463 844.798 376.463 844.693 376.463C833.686 376.463 824.764 368.478 824.764 358.628C824.764 348.778 833.686 340.793 844.693 340.793C844.798 340.793 844.896 340.793 845 340.795L845 311.705C844.896 311.707 844.798 311.707 844.693 311.707C833.686 311.707 824.764 303.722 824.764 293.872C824.764 284.022 833.686 276.037 844.693 276.037L844.742 276.037L844.841 276.037L844.896 276.038L845 276.039L845 251.341C814.861 251.341 790.424 229.474 790.424 202.5C790.424 175.526 814.861 153.659 845 153.659L845 129.51C844.896 129.512 844.798 129.512 844.693 129.512C833.686 129.512 824.764 121.527 824.764 111.677C824.764 101.827 833.686 93.8415 844.693 93.8415C844.798 93.8415 844.896 93.842 845 93.8437L845 64.7539C844.945 64.7544 844.896 64.755 844.841 64.7556C844.791 64.7561 844.742 64.7561 844.693 64.7561C833.686 64.7561 824.764 56.7708 824.764 46.9207C824.764 37.0707 833.686 29.0854 844.693 29.0854C844.798 29.0854 844.896 29.0859 845 29.0876L845 4.08223e-06L-1.77031e-05 4.10184e-05L-1.64317e-05 29.0876C0.102001 29.086 0.204204 29.0854 0.306587 29.0854C11.3132 29.0854 20.2358 37.0707 20.2358 46.9208C20.2358 56.7708 11.3132 64.7561 0.306589 64.7561C0.204205 64.7561 0.102003 64.7556 -1.48726e-05 64.7539L-1.36011e-05 93.8437C0.102004 93.8421 0.204207 93.8415 0.30659 93.8415C11.3132 93.8415 20.2358 101.827 20.2358 111.677C20.2358 121.527 11.3132 129.512 0.306592 129.512C0.204208 129.512 0.102005 129.512 -1.2042e-05 129.51L-1.09865e-05 153.659C30.1412 153.659 54.5755 175.526 54.5755 202.5C54.5755 229.474 30.1412 251.341 -6.71663e-06 251.341L-5.63707e-06 276.039C0.102012 276.037 0.204215 276.037 0.306598 276.037C11.3132 276.037 20.2358 284.022 20.2358 293.872C20.2358 303.722 11.3132 311.707 0.3066 311.707C0.204216 311.707 0.102013 311.707 -4.07805e-06 311.705L-2.80649e-06 340.795C0.102015 340.793 0.204217 340.793 0.306601 340.793Z" fill="white"/>
</svg>
