<svg width="30" height="26" viewBox="0 0 30 26" fill="none" xmlns="http://www.w3.org/2000/svg">
<g clip-path="url(#clip0_214_1901)">
<path d="M15.2251 16.714C11.0503 16.714 6.88059 16.714 2.70573 16.714C2.28907 16.7414 1.87517 16.6312 1.53267 16.4017C1.19017 16.1721 0.939653 15.8371 0.82265 15.452C-0.517236 12.1132 0.19668 9.6389 3.23858 7.6068C4.1853 6.9758 4.42844 6.36468 4.61468 5.3213C5.1734 2.16633 7.34619 0.154096 10.7502 0.178938C12.8195 0.178938 14.4647 1.31672 15.5873 3.01593C15.7058 3.24576 15.906 3.42724 16.1518 3.52749C16.3976 3.62775 16.6727 3.64015 16.9272 3.56247C19.7259 3.17989 22.0436 3.91523 23.4972 6.44915C23.8689 7.06447 24.0602 7.76497 24.0508 8.47628C24.0508 9.66374 24.325 9.96682 25.5666 9.92707C28.0342 9.84758 30.8951 13.718 29.4052 15.924C29.2813 16.1722 29.0845 16.3802 28.839 16.5223C28.5936 16.6644 28.3103 16.7345 28.0239 16.7239C23.7559 16.6991 19.4931 16.714 15.2251 16.714Z" fill="#ABABAB"/>
<path d="M20.2528 19.0259L19.788 18.8078C19.3772 18.6152 18.8816 18.7788 18.6809 19.1733L17.9635 20.5841C17.7629 20.9786 17.9333 21.4546 18.3441 21.6473L18.8089 21.8653C19.2197 22.058 19.7153 21.8943 19.9159 21.4998L20.6333 20.0891C20.834 19.6946 20.6636 19.2186 20.2528 19.0259Z" fill="#57C2DA"/>
<path d="M17.7396 23.0801L17.2748 22.862C16.864 22.6694 16.3684 22.833 16.1678 23.2275L15.4504 24.6383C15.2497 25.0328 15.4201 25.5088 15.8309 25.7015L16.2957 25.9195C16.7065 26.1122 17.2021 25.9485 17.4028 25.554L18.1202 24.1433C18.3208 23.7487 18.1504 23.2728 17.7396 23.0801Z" fill="#57C2DA"/>
<path d="M10.2533 18.9482L9.78845 18.7302C9.37767 18.5375 8.88205 18.7012 8.68144 19.0957L7.96403 20.5064C7.76342 20.901 7.93379 21.377 8.34456 21.5696L8.80941 21.7877C9.22018 21.9803 9.71581 21.8167 9.91642 21.4222L10.6338 20.0114C10.8344 19.6169 10.6641 19.1409 10.2533 18.9482Z" fill="#57C2DA"/>
<path d="M7.70276 23.042L7.23791 22.824C6.82714 22.6313 6.33151 22.7949 6.1309 23.1894L5.4135 24.6002C5.21288 24.9947 5.38325 25.4707 5.79402 25.6634L6.25888 25.8814C6.66965 26.0741 7.16527 25.9105 7.36589 25.5159L8.08329 24.1052C8.2839 23.7107 8.11353 23.2347 7.70276 23.042Z" fill="#57C2DA"/>
</g>
<defs>
<clipPath id="clip0_214_1901">
<rect width="30" height="26" fill="white"/>
</clipPath>
</defs>
</svg>
