<svg width="30" height="26" viewBox="0 0 30 26" fill="none" xmlns="http://www.w3.org/2000/svg">
<path d="M15.2135 17.4657C11.268 17.4657 7.32246 17.4657 3.38184 17.4657C2.98754 17.4957 2.59508 17.3872 2.27081 17.1584C1.94654 16.9296 1.71035 16.5946 1.60219 16.2101C0.35547 12.8735 1.0106 10.4119 3.8854 8.39013C4.78011 7.76236 5.00991 7.15437 5.18592 6.11631C5.71883 2.98238 7.76736 0.980373 10.9795 1.00015C12.9351 1.00015 14.4948 2.13711 15.5508 3.82765C15.6638 4.0565 15.8542 4.23672 16.0875 4.3356C16.3208 4.43448 16.5814 4.44543 16.822 4.36643C19.467 3.99076 21.6573 4.71737 23.0263 7.2433C23.3788 7.85336 23.5613 8.54864 23.5543 9.25518C23.5543 10.4415 23.8085 10.7381 24.9868 10.7035C27.3189 10.6194 30.0226 14.4702 28.6096 16.6649C28.4938 16.9131 28.3082 17.1214 28.0761 17.2638C27.844 17.4062 27.5755 17.4764 27.3043 17.4657C23.2756 17.4558 19.2421 17.4657 15.2135 17.4657Z" fill="#ABABAB" stroke="#E8E8E8" stroke-width="0.72" stroke-miterlimit="10"/>
<path d="M5.62 20.7153C5.62 20.7484 5.59314 20.7753 5.56 20.7753C5.52686 20.7753 5.5 20.7484 5.5 20.7153C5.5 20.6821 5.52686 20.6553 5.56 20.6553C5.59314 20.6553 5.62 20.6821 5.62 20.7153Z" fill="#F9F9F9" stroke="#ABABAB"/>
<path d="M14.6566 20.7153C14.6566 20.7484 14.6298 20.7753 14.5966 20.7753C14.5635 20.7753 14.5366 20.7484 14.5366 20.7153C14.5366 20.6821 14.5635 20.6553 14.5966 20.6553C14.6298 20.6553 14.6566 20.6821 14.6566 20.7153Z" fill="#F9F9F9" stroke="#ABABAB"/>
<path d="M23.62 20.7153C23.62 20.7484 23.5931 20.7753 23.56 20.7753C23.5269 20.7753 23.5 20.7484 23.5 20.7153C23.5 20.6821 23.5269 20.6553 23.56 20.6553C23.5931 20.6553 23.62 20.6821 23.62 20.7153Z" fill="#F9F9F9" stroke="#ABABAB"/>
<path d="M9.62 25.4096C9.62 25.4427 9.59314 25.4696 9.56 25.4696C9.52686 25.4696 9.5 25.4427 9.5 25.4096C9.5 25.3765 9.52686 25.3496 9.56 25.3496C9.59314 25.3496 9.62 25.3765 9.62 25.4096Z" fill="#F9F9F9" stroke="#ABABAB"/>
<path d="M19.62 25.4096C19.62 25.4427 19.5931 25.4696 19.56 25.4696C19.5269 25.4696 19.5 25.4427 19.5 25.4096C19.5 25.3765 19.5269 25.3496 19.56 25.3496C19.5931 25.3496 19.62 25.3765 19.62 25.4096Z" fill="#F9F9F9" stroke="#ABABAB"/>
</svg>
