<svg width="18" height="17" viewBox="0 0 18 17" fill="none" xmlns="http://www.w3.org/2000/svg">
<path d="M13.4548 16.7917L9.58981 14.8365C9.43021 14.7556 9.25297 14.7141 9.07344 14.7158C8.89391 14.7175 8.7175 14.7623 8.5595 14.8462L4.73112 16.8673C4.54921 16.9635 4.34359 17.0076 4.1375 16.9949C3.93141 16.9821 3.73306 16.9128 3.56486 16.7949C3.39667 16.677 3.26534 16.5151 3.18571 16.3276C3.10608 16.1401 3.08132 15.9343 3.11423 15.7337L3.80885 11.5114C3.83749 11.3369 3.82263 11.1581 3.76556 10.9905C3.70848 10.8229 3.61089 10.6714 3.48119 10.5492L0.341158 7.59222C0.192058 7.45151 0.0858898 7.27259 0.0346409 7.07564C-0.016608 6.87869 -0.0108947 6.67155 0.0511305 6.47763C0.113156 6.2837 0.229024 6.11071 0.385657 5.97817C0.542291 5.84563 0.733451 5.75882 0.937557 5.72755L5.23288 5.07378C5.41014 5.04649 5.57804 4.9773 5.72218 4.87216C5.86633 4.76701 5.98242 4.62905 6.06052 4.47007L7.94793 0.616815C8.03758 0.433605 8.17753 0.278743 8.35195 0.169746C8.52637 0.0607481 8.72831 0.00196863 8.93491 4.8584e-05C9.14151 -0.00187146 9.34453 0.0531538 9.52101 0.15889C9.69749 0.264626 9.84039 0.416854 9.93354 0.598365L11.8933 4.41646C11.974 4.57431 12.0927 4.71042 12.2389 4.81301C12.3851 4.91559 12.5546 4.98158 12.7325 5.00523L17.0385 5.58166C17.2433 5.60896 17.4363 5.69213 17.5955 5.82175C17.7548 5.95137 17.874 6.12227 17.9397 6.31512C18.0053 6.50796 18.0149 6.71506 17.9672 6.91296C17.9195 7.11086 17.8165 7.29166 17.6698 7.43492L14.586 10.4481C14.4588 10.5726 14.3641 10.7255 14.3102 10.8939C14.2562 11.0622 14.2445 11.2409 14.2762 11.4147L15.0503 15.6238C15.0881 15.8243 15.0681 16.0311 14.9925 16.2209C14.9169 16.4106 14.7887 16.5758 14.6225 16.6974C14.4563 16.819 14.2588 16.8924 14.0524 16.909C13.8459 16.9257 13.6389 16.885 13.4548 16.7917Z" fill="#FFD700"/>
</svg>
