<svg width="31" height="28" viewBox="0 0 31 28" fill="none" xmlns="http://www.w3.org/2000/svg">
<g clip-path="url(#clip0_214_1950)">
<path d="M15.7354 17.8755C11.3672 17.8755 6.99891 17.8755 2.63606 17.8755C2.19952 17.9082 1.765 17.7902 1.40599 17.5416C1.04698 17.293 0.785483 16.929 0.665739 16.5112C-0.714564 12.8856 0.0107623 10.2108 3.19358 8.01401C4.17874 7.33187 4.43858 6.67116 4.63345 5.54321C5.22346 2.13251 7.49147 -0.0374399 11.0478 -0.0159552C13.213 -0.0159552 14.9397 1.21403 16.1089 3.05635C16.2348 3.30425 16.4457 3.49945 16.7037 3.60678C16.9617 3.7141 17.2499 3.72656 17.5163 3.64185C20.4447 3.23364 22.8697 4.02318 24.3853 6.76786C24.7757 7.43075 24.9777 8.18625 24.9699 8.95397C24.9699 10.2377 25.2514 10.5653 26.5559 10.5223C29.1379 10.4364 32.1258 14.6206 30.5669 17.0054C30.438 17.2747 30.2325 17.5006 29.9756 17.6553C29.7188 17.8099 29.4219 17.8865 29.1217 17.8755C24.6506 17.8594 20.1957 17.8755 15.7354 17.8755Z" fill="#ABABAB"/>
<path d="M17.7113 14.9104C15.7193 14.7063 15.4649 14.325 16.0874 12.343C16.3581 11.4944 16.6991 10.6726 17.0888 9.62521C16.8344 9.43722 16.58 9.08806 16.2715 9.05046C15.6544 8.94841 15.0048 9.05046 14.3877 8.98601C13.002 8.79264 12.2496 9.32975 11.7949 10.6564C11.167 12.5041 10.3822 14.3035 9.62976 16.0975C9.08847 17.2791 9.42407 17.6014 10.7124 17.6229C12.9208 17.6605 13.2565 18.16 12.6231 20.1849C11.8924 22.559 10.9992 24.8955 10.2252 27.2534C10.1743 27.4989 10.1562 27.7499 10.1711 28C10.43 27.8597 10.664 27.6782 10.8639 27.4629C13.4152 23.8069 15.9557 20.1384 18.4854 16.4573C19.4056 15.1038 19.3839 15.0877 17.7113 14.9104Z" fill="#FFE168"/>
</g>
<defs>
<clipPath id="clip0_214_1950">
<rect width="31" height="28" fill="white"/>
</clipPath>
</defs>
</svg>
