<svg width="23" height="13" viewBox="0 0 23 13" fill="none" xmlns="http://www.w3.org/2000/svg">
<g clip-path="url(#clip0_214_1953)">
<path d="M10.5608 12.4718C7.629 12.4718 4.70089 12.4718 1.76912 12.4718C1.47652 12.4925 1.18585 12.4093 0.94533 12.2362C0.704814 12.0631 0.5289 11.8104 0.446735 11.5199C-0.479658 8.99039 0.00714612 7.12417 2.1433 5.59145C2.80813 5.11552 2.97888 4.65459 3.10967 3.86762C3.50566 1.48797 5.02785 -0.0297963 7.4183 -0.0110589C8.87147 -0.0110589 10.0267 0.847145 10.8114 2.12878C10.8953 2.30242 11.0366 2.43937 11.2099 2.51497C11.3831 2.59056 11.5768 2.59981 11.756 2.541C13.7214 2.25619 15.349 2.80704 16.3698 4.71826C16.6308 5.18237 16.7652 5.71075 16.7585 6.24726C16.7585 7.1429 16.9511 7.37147 17.823 7.34149C19.5559 7.28153 21.5649 10.2008 20.5186 11.8647C20.432 12.0522 20.2938 12.2093 20.1214 12.3166C19.949 12.4239 19.7498 12.4765 19.5486 12.4681C16.5515 12.4606 13.5688 12.4718 10.5608 12.4718Z" fill="#ABABAB"/>
<path d="M19.6867 9.79235C18.5387 9.79235 17.3907 9.79235 16.2464 9.79235V9.75488H14.2374C13.6888 9.75488 13.1475 9.75488 12.588 9.75488C12.1448 9.75488 11.9341 9.97597 11.9341 10.3545C11.9341 10.733 12.1157 10.9166 12.5844 10.9616H12.8024L19.3961 11.0665C19.5621 11.0426 19.731 11.0515 19.8938 11.0927C20.0246 11.1564 20.1045 11.34 20.2062 11.4675C20.0644 11.5616 19.9085 11.6313 19.7449 11.6736C19.625 11.6736 19.5014 11.5424 19.3816 11.4825C18.9856 11.2951 18.7276 11.3663 18.5315 11.7111C18.3353 12.0558 18.4116 12.2657 18.7567 12.5318C18.9298 12.6623 19.1176 12.7705 19.3162 12.8541C19.6113 12.9942 19.9434 13.0282 20.2595 12.9508C20.5756 12.8733 20.8574 12.6889 21.06 12.4268C21.2663 12.1855 21.3957 11.8846 21.4308 11.5649C21.4659 11.2452 21.4049 10.9221 21.2561 10.6393C21.1014 10.3572 20.871 10.1272 20.5926 9.97693C20.3142 9.82669 19.9996 9.7626 19.6867 9.79235Z" fill="#FFE168"/>
<path d="M12.4791 5.98105C12.6451 6.00543 12.813 6.01298 12.9804 6.00356H15.6324C16.359 6.00356 17.0638 6.00356 17.7831 6.00356C18.2105 6.01706 18.638 5.98314 19.0583 5.90237C19.3129 5.8335 19.5456 5.6971 19.7333 5.50667C19.9209 5.31624 20.0569 5.07846 20.1278 4.81696C20.1988 4.55547 20.2021 4.27936 20.1374 4.01614C20.0728 3.75292 19.9425 3.51174 19.7594 3.3166C19.6076 3.1496 19.4241 3.01651 19.2204 2.92552C19.0167 2.83453 18.7971 2.7876 18.5751 2.7876C18.3531 2.7876 18.1335 2.83453 17.9298 2.92552C17.7261 3.01651 17.5427 3.1496 17.3908 3.3166C17.2815 3.41517 17.2128 3.553 17.1987 3.70201C17.1845 3.85101 17.2259 3.99997 17.3145 4.11857C17.3496 4.18376 17.397 4.24105 17.4538 4.28705C17.5107 4.33304 17.576 4.3668 17.6458 4.38636C17.7155 4.40592 17.7884 4.4109 17.86 4.40095C17.9316 4.391 18.0006 4.36634 18.0629 4.32845C18.2118 4.2535 18.3535 4.1036 18.4988 4.09986C18.6649 4.1319 18.8231 4.19814 18.9638 4.29469C18.8621 4.42959 18.7858 4.61697 18.6514 4.66943C18.4884 4.70376 18.3203 4.70376 18.1573 4.66943H12.9768C12.8112 4.65441 12.6447 4.65441 12.4791 4.66943C12.3229 4.68377 12.1784 4.76028 12.076 4.8827C11.9736 5.00512 11.9214 5.16382 11.9305 5.32524C11.9203 5.40632 11.9267 5.48873 11.9495 5.56705C11.9722 5.64537 12.0108 5.71787 12.0625 5.77977C12.1143 5.84167 12.1782 5.8916 12.25 5.92629C12.3218 5.96098 12.3998 5.97963 12.4791 5.98105Z" fill="#FFE168"/>
<path d="M23.0146 6.74168C22.9983 6.41799 22.8845 6.10764 22.6892 5.85376C22.4938 5.59987 22.2266 5.41506 21.9248 5.32512C21.6089 5.26107 21.2827 5.27817 20.9748 5.37489C20.6669 5.47162 20.3868 5.64503 20.1592 5.87979C20.003 6.09714 19.9376 6.36318 20.1592 6.55055C20.3238 6.70989 20.537 6.8053 20.7622 6.82041C20.9548 6.82041 21.1473 6.65174 21.3362 6.55055C21.3756 6.52125 21.4215 6.50271 21.4696 6.49667C21.5178 6.49062 21.5666 6.49726 21.6116 6.51597C21.6566 6.53468 21.6963 6.5649 21.7269 6.60371C21.7575 6.64252 21.7781 6.68868 21.7867 6.73793C21.7885 6.82517 21.7683 6.91142 21.7282 6.98825C21.6881 7.06508 21.6294 7.12988 21.5578 7.1764C21.3519 7.23349 21.1373 7.24876 20.9257 7.22137H14.8151C14.6226 7.22137 14.3974 7.16514 14.252 7.25133C14.1528 7.30425 14.0649 7.37737 13.9937 7.46624C13.9225 7.55512 13.8695 7.65792 13.8379 7.76848C13.8598 8.00095 13.9678 8.21576 14.1394 8.36812C14.2339 8.45806 14.4591 8.42804 14.6226 8.42804H18.063C19.1529 8.42804 20.2427 8.42804 21.358 8.42804C21.5949 8.43407 21.831 8.39732 22.0555 8.3194C22.3645 8.20651 22.6273 7.9892 22.8014 7.70279C22.9755 7.41639 23.0507 7.07769 23.0146 6.74168Z" fill="#FFE168"/>
</g>
<defs>
<clipPath id="clip0_214_1953">
<rect width="23" height="13" fill="white"/>
</clipPath>
</defs>
</svg>
