<svg width="169" height="149" viewBox="0 0 169 149" fill="none" xmlns="http://www.w3.org/2000/svg">
<g style="mix-blend-mode:overlay" clip-path="url(#clip0_79_1511)">
<path d="M145.223 69.0338C137.737 73.5393 130.577 78.0737 123.234 82.1854C120.117 83.9146 116.341 85.5285 113.215 82.1854C111.484 80.3505 113.76 74.0005 116.886 71.618C118.607 70.3019 120.71 68.8801 122.708 68.6495C131.944 67.5928 138.349 62.5492 143.215 54.96C143.005 54.787 142.823 54.5276 142.604 54.4796C140.328 54.0569 138.043 53.6727 135.768 53.2788C136.581 50.5601 136.647 47.1401 138.378 45.2956C141.122 42.4136 145.185 40.7805 148.311 38.1674C150.835 36.054 152.805 33.2777 155.004 30.7991L154.048 29.8865C152.68 30.8471 151.418 32.1441 149.908 32.5956C148.072 33.1335 146.026 32.9318 144.076 33.0471C144.439 30.7799 144.076 28.0131 145.29 26.3224C149.669 20.1356 154.545 14.314 159.229 8.34826C159.229 8.34826 159.038 8.16572 158.57 7.73342C150.156 12.6232 141.533 17.4746 133.101 22.643C130.946 24.0285 129.161 25.9213 127.9 28.1573C122.883 37.0377 115.56 44.3825 106.714 49.4073C101.857 52.2893 97.1532 55.4691 92.1913 58.0533C90.5565 58.9083 88.2046 58.3895 86.1874 58.5048C85.9483 57.9765 85.6999 57.4481 85.4609 56.9293C87.2104 54.6333 88.5202 51.6552 90.7956 50.2046C98.1762 45.334 103.817 39.3203 106.016 29.7136C103.023 32.2882 100.28 34.5169 97.7269 36.8705C91.7707 42.452 85.5277 47.4379 77.3918 49.5514C71.7511 50.9828 67.6688 54.7486 64.2749 59.2542C59.8675 65.0951 54.9726 69.9272 47.1808 70.9551C43.806 71.397 40.5937 73.0686 37.2858 74.1926C39.0162 69.8408 43.414 69.2259 47.1617 68.784C53.854 67.9963 58.2039 64.1248 61.8178 59.1773C66.2156 53.2019 71.3783 48.8501 78.7207 46.9191C86.3021 44.9209 91.7802 39.474 97.4209 34.3248C100.52 31.6257 103.854 29.2111 107.383 27.1101C108.807 26.2263 110.767 26.2167 112.096 25.8997C108.741 31.6637 106.102 37.7832 102.106 42.7499C98.1093 47.7165 92.9467 51.2614 88.2907 55.4403L89.7631 57.5345C93.9983 55.104 98.2814 52.7792 102.431 50.2239C104.343 49.071 105.719 47.1017 107.651 46.1218C115.787 42.0197 120.815 35.0549 125.672 27.6961C127.872 24.3826 130.754 21.5817 134.123 19.4824C144.793 13.0267 155.768 7.08978 166.629 0.960701C167.402 0.598753 168.193 0.278083 169 3.05176e-05C164.717 5.57192 160.826 10.6827 156.868 15.755C152.91 20.8273 148.847 25.8708 144.831 30.9336L146.026 32.3266L158.684 24.2377C157.556 31.7406 154.248 36.6496 149.191 40.4154C147.059 41.9909 144.487 42.9708 142.288 44.4694C139.544 46.3235 136.552 48.1872 138.043 53.5382L149.631 48.8693C143.177 59.7729 136.925 68.9377 123.989 70.6285C118.932 71.2817 115.691 74.9707 114.649 81.6858C117.297 81.2439 120.003 81.4937 121.867 80.3505C130.366 75.1821 138.626 69.6198 146.973 64.192L150.701 61.7519C151.151 62.3571 151.562 62.7126 151.495 62.8375C144.554 75.5183 136.561 87.1905 122.03 92.0803C115.691 94.2034 110.882 97.7866 108.176 104.079C105.863 109.449 101.484 112.11 95.9868 113.686C92.8223 114.646 88.9312 115.665 90.155 121.582L100.777 118.893C100.696 120.792 100.15 122.642 99.1858 124.278C98.2217 125.914 96.8699 127.285 95.2508 128.269C91.6248 130.452 87.8773 132.424 84.0268 134.177C79.5334 136.425 75.0495 138.711 70.4509 140.719C68.3249 141.531 66.0796 141.982 63.8064 142.054C73.6824 134.062 86.9618 132.707 97.0194 123.456C96.1633 123.258 95.2878 123.158 94.4094 123.158C91.3501 123.907 88.176 123.782 87.2487 120.439C86.3213 117.096 88.4724 114.406 91.6464 112.927C93.3482 112.129 95.3271 111.784 96.8186 110.708C100.031 108.383 104.037 106.308 105.853 103.08C109.486 96.5762 114.266 92.1859 121.246 89.9188C132.068 86.4315 139.219 78.5636 145.223 69.0338Z" fill="white"/>
<path d="M1.62526 107.902C3.64251 103.445 2.2371 97.8539 6.97909 94.1937C10.9276 91.1484 13.8148 86.6813 17.8493 83.7993C20.7174 81.7338 24.7042 80.9173 28.3085 80.1295C30.9472 79.5435 33.9396 80.3889 36.5113 79.6588C42.0755 78.0833 46.196 79.4283 49.7429 84.001C51.1228 85.4576 52.9876 86.3534 54.9822 86.518C62.5732 87.2289 67.1621 92.1187 66.9422 99.5927C66.9422 100.553 67.8983 101.6 67.9843 102.628C68.252 107.432 69.0073 112.235 68.3381 116.885C67.6019 121.976 65.5751 126.895 63.9403 131.823C63.4579 133.6 62.5782 135.243 61.3685 136.627C55.2594 142.631 48.3472 146.896 39.2647 146.233C37.2197 145.987 35.1469 146.32 33.2799 147.194C27.3046 150.595 21.0139 148.779 16.7404 145.686C10.4878 141.151 3.27922 136.502 1.51054 127.731C1.25605 126.988 1.04532 126.231 0.879517 125.464C0.51622 120.862 0.0573932 116.26 3.05176e-05 111.649C3.05176e-05 110.362 1.16642 109.046 1.80697 107.749C1.80697 109.67 1.73999 111.668 1.74955 113.628C1.74955 116.654 1.74951 119.69 1.95028 122.697C2.17017 125.319 1.50103 128.653 5.62158 129.076C6.25894 130.939 6.8963 132.803 7.53367 134.667C8.48971 135.8 9.12071 137.385 10.2871 137.981C14.1113 139.902 18.0883 141.411 22.0081 143.082L21.7213 144.177L16.2432 143.428C18.6427 144.851 21.3106 145.757 24.0775 146.088C26.8443 146.419 29.6494 146.167 32.3143 145.349C34.9243 144.494 38.0506 143.918 40.6128 144.514C47.5824 146.108 51.961 141.42 57.1427 138.577L58.2422 137.462C59.8101 135.234 61.8179 133.197 62.86 130.738C65.1449 125.358 63.0607 118.681 67.6402 113.859C68.0608 113.426 67.6975 112.235 67.6975 110.736L65.2405 113.945C65.6612 110.026 67.535 106.144 63.1946 103.166C62.7739 102.878 63.0989 100.601 63.7395 99.7752C65.9766 96.8932 65.6516 93.2715 62.6114 91.7344C57.3404 89.0446 52.063 86.3867 46.7792 83.7609C45.8354 83.2106 44.772 82.9006 43.6817 82.8578C38.1366 83.1557 32.5915 83.6168 27.056 84.0587C26.9317 84.0587 26.8553 84.587 26.731 84.9425L29.7807 87.1809C29.3123 87.7188 29.1498 88.0743 28.8821 88.1415C27.5854 88.6948 26.2496 89.1508 24.8858 89.5057C15.5261 91.5423 8.32717 96.4129 3.93893 105.184C3.27969 106.181 2.50279 107.093 1.62526 107.902Z" fill="white"/>
<path d="M96.4171 89.1983C89.6674 84.1547 89.2755 82.0028 93.8167 76.4501C95.8053 74.0292 98.5204 72.2136 100.719 69.9368C103.874 66.6609 106.867 63.2121 109.926 59.8402C109.611 59.5424 109.295 59.2445 108.97 58.9371C100.509 64.9221 92.0766 70.9263 83.5774 76.8632C81.9554 78.1128 80.1403 79.0864 78.2044 79.7452C77.5567 79.8577 76.8914 79.8059 76.2686 79.5945C75.6459 79.3831 75.0856 79.0189 74.6384 78.5348C74.1508 77.6798 74.6384 75.7585 75.3746 74.7978C76.388 73.4433 78.0036 72.5402 79.017 70.9071C71.2062 74.7498 61.2442 68.7168 54.1599 78.1121C54.9481 75.9123 56.3682 73.9968 58.2402 72.6082C60.1123 71.2196 62.3521 70.4204 64.6764 70.3115C66.5885 70.225 68.5005 70.2346 70.4126 70.3115C75.5179 70.494 79.1892 68.2364 81.3594 63.337C82.8986 65.8828 82.8986 65.8828 75.7952 78.7077C84.4569 73.2031 92.1531 68.4285 99.6963 63.4715C107.058 58.6681 112.67 50.7042 122.708 50.4929C115.299 53.0578 112.383 59.7825 108.1 65.3544C105.041 69.3316 100.614 72.2136 97.0959 75.8641C94.897 78.1601 92.2296 80.6194 93.9123 84.7407L97.8895 83.8953C97.8895 91.0043 94.4859 95.2793 87.2487 97.1046C83.8643 97.9595 81.0057 99.17 80.0305 102.936C84.6673 104.646 85.3079 106.702 81.8757 110.045C78.1567 113.667 76.3975 117.288 77.9558 122.764C79.5142 128.24 73.9596 128.442 70.8046 131.189C70.0781 126.434 79.4091 127.25 74.9157 121.64L69.9252 122.12L69.6956 120.948L73.5772 119.776L81.3594 106.567C77.0572 104.031 77.0572 100.063 82.0095 97.1622C83.6156 96.2015 85.6234 95.9998 87.2295 95.0775C90.308 93.3579 93.1283 91.3502 96.4171 89.1983Z" fill="white"/>
<path d="M64.7051 85.1731L61.1965 81.8876L67.7166 76.8248C66.4164 80.3697 65.6038 82.6465 64.7051 85.1731Z" fill="white"/>
<path d="M57.1427 138.529L54.657 139.249C52.8979 132.803 59.5425 129.873 60.5846 124.753C58.1562 127.471 63.1754 133.293 56.5691 134.273C57.1236 135.32 57.6781 136.367 58.2422 137.414L57.1427 138.529Z" fill="white"/>
<path d="M38.825 104.511C40.7371 107.105 33.146 108.777 38.0696 111.342C39.0257 111.86 41.1385 110.266 42.324 109.805C41.6356 113.465 37.3622 117.058 33.3564 116.529C32.9406 116.409 32.5591 116.191 32.2433 115.894C31.9275 115.597 31.6864 115.228 31.5399 114.819C30.9089 112.072 35.8039 105.241 38.825 104.511Z" fill="white"/>
<path d="M18.3943 122.582L21.8169 126.347L24.8953 120.055C26.0043 122.658 27.687 124.714 27.2473 126.078C26.8075 127.443 24.3026 128.336 22.6773 129.364C22.5053 129.47 22.1037 129.21 21.8073 129.114C21.3771 131.035 21.138 133.476 18.5472 130.699C16.5777 128.595 16.0328 126.232 17.8588 123.677C18.068 123.328 18.2472 122.961 18.3943 122.582Z" fill="white"/>
<path d="M45.7084 127.077L41.1576 130.43C39.1117 125.175 42.6108 120.372 50.3357 118.499C48.6721 121.525 47.1138 124.388 45.5554 127.25L45.7084 127.077Z" fill="white"/>
<path d="M45.546 127.25L49.7812 124.733L50.2306 125.348L47.2668 129.191H52.9267L53.3855 130.277L43.8251 134.6C43.6339 134.158 43.4331 133.725 43.2324 133.293C44.0737 131.212 44.9086 129.13 45.7372 127.049L45.546 127.25Z" fill="white"/>
<path d="M14.8952 115.3C14.9908 116.26 15.1055 117.029 15.1438 117.797C15.1438 118.758 15.1438 119.671 15.1438 119.805L6.86438 120.209V115.3H14.8952Z" fill="white"/>
</g>
<defs>
<clipPath id="clip0_79_1511">
<rect width="169" height="149" fill="white"/>
</clipPath>
</defs>
</svg>
