<svg width="40" height="40" viewBox="0 0 40 40" fill="none" xmlns="http://www.w3.org/2000/svg">
<path d="M19.7924 29.9736C25.4152 29.9736 29.9735 25.4154 29.9735 19.7925C29.9735 14.1696 25.4152 9.61136 19.7924 9.61136C14.1695 9.61136 9.61124 14.1696 9.61124 19.7925C9.61124 25.4154 14.1695 29.9736 19.7924 29.9736Z" fill="#FFE168"/>
<path d="M20.703 0H18.8817V7.14547H20.703V0Z" fill="#FFE168"/>
<path d="M6.43836 5.15198L5.15044 6.43991L10.203 11.4925L11.491 10.2046L6.43836 5.15198Z" fill="#FFE168"/>
<path d="M-3.05176e-05 18.8818L-3.05176e-05 20.7032H7.14544V18.8818H-3.05176e-05Z" fill="#FFE168"/>
<path d="M5.15476 33.1437L6.44269 34.4316L11.4953 29.379L10.2074 28.0911L5.15476 33.1437Z" fill="#FFE168"/>
<path d="M18.8817 39.5803H20.7031V32.4348H18.8817V39.5803Z" fill="#FFE168"/>
<path d="M33.1422 34.4316L34.4301 33.1436L29.3775 28.091L28.0896 29.379L33.1422 34.4316Z" fill="#FFE168"/>
<path d="M39.5801 20.7032V18.8818H32.4346V20.7032H39.5801Z" fill="#FFE168"/>
<path d="M34.4297 6.43984L33.1417 5.15192L28.0891 10.2045L29.3771 11.4925L34.4297 6.43984Z" fill="#FFE168"/>
</svg>
