<svg width="76" height="72" viewBox="0 0 76 72" fill="none" xmlns="http://www.w3.org/2000/svg">
<g style="mix-blend-mode:overlay" clip-path="url(#clip0_80_1546)">
<path d="M66.3491 4.028L38.1615 49.2282L20.0267 69.1483L5.64062 67.0674" stroke="white" stroke-miterlimit="10"/>
<path d="M62.6493 4.36327C62.8341 6.40272 64.6404 7.9059 66.6837 7.72074C68.7271 7.53558 70.2338 5.73218 70.049 3.69274C69.8642 1.65329 68.0579 0.150105 66.0145 0.335269C63.9711 0.520433 62.4644 2.32383 62.6493 4.36327Z" fill="white"/>
<path d="M34.6533 49.4333C34.8381 51.4727 36.6444 52.9759 38.6878 52.7908C40.7311 52.6056 42.2378 50.8022 42.053 48.7628C41.8682 46.7233 40.0619 45.2201 38.0185 45.4053C35.9751 45.5905 34.4685 47.3939 34.6533 49.4333Z" fill="white"/>
</g>
<defs>
<clipPath id="clip0_80_1546">
<rect width="65" height="70" fill="white" transform="translate(69.7144) rotate(84.8222)"/>
</clipPath>
</defs>
</svg>
