<svg width="30" height="26" viewBox="0 0 30 26" fill="none" xmlns="http://www.w3.org/2000/svg">
<g clip-path="url(#clip0_80_7507)">
<path d="M15.225 16.7139C11.0502 16.7139 6.8805 16.7139 2.70564 16.7139C2.28898 16.7413 1.87508 16.6311 1.53258 16.4016C1.19008 16.1721 0.939561 15.837 0.822559 15.452C-0.517328 12.1131 0.196588 9.63884 3.23849 7.60674C4.18521 6.97574 4.42835 6.36462 4.61459 5.32124C5.17331 2.16627 7.3461 0.154035 10.7501 0.178877C12.8195 0.178877 14.4646 1.31666 15.5872 3.01587C15.7057 3.2457 15.906 3.42718 16.1517 3.52743C16.3975 3.62769 16.6726 3.64009 16.9271 3.5624C19.7258 3.17983 22.0435 3.91517 23.4972 6.44908C23.8688 7.06441 24.0601 7.76491 24.0507 8.47622C24.0507 9.66368 24.3249 9.96676 25.5665 9.92701C28.0341 9.84752 30.895 13.718 29.4051 15.924C29.2812 16.1721 29.0844 16.3801 28.839 16.5222C28.5935 16.6644 28.3102 16.7345 28.0238 16.7239C23.7558 16.699 19.493 16.7139 15.225 16.7139Z" fill="#ABABAB"/>
<path d="M20.2527 19.026L19.7878 18.8079C19.3771 18.6153 18.8814 18.7789 18.6808 19.1734L17.9634 20.5842C17.7628 20.9787 17.9332 21.4547 18.3439 21.6474L18.8088 21.8654C19.2196 22.0581 19.7152 21.8944 19.9158 21.4999L20.6332 20.0891C20.8338 19.6946 20.6635 19.2186 20.2527 19.026Z" fill="#57C2DA"/>
<path d="M17.7395 23.08L17.2747 22.862C16.8639 22.6693 16.3683 22.8329 16.1676 23.2274L15.4502 24.6382C15.2496 25.0327 15.42 25.5087 15.8308 25.7014L16.2956 25.9194C16.7064 26.1121 17.202 25.9485 17.4026 25.554L18.12 24.1432C18.3206 23.7487 18.1503 23.2727 17.7395 23.08Z" fill="#57C2DA"/>
<path d="M10.2532 18.9482L9.78832 18.7301C9.37755 18.5375 8.88193 18.7011 8.68131 19.0956L7.96391 20.5064C7.7633 20.9009 7.93366 21.3769 8.34444 21.5696L8.80929 21.7876C9.22006 21.9803 9.71569 21.8166 9.9163 21.4221L10.6337 20.0114C10.8343 19.6169 10.6639 19.1409 10.2532 18.9482Z" fill="#57C2DA"/>
<path d="M7.70255 23.042L7.23769 22.824C6.82692 22.6313 6.3313 22.7949 6.13069 23.1894L5.41328 24.6002C5.21267 24.9947 5.38304 25.4707 5.79381 25.6634L6.25866 25.8814C6.66943 26.0741 7.16506 25.9105 7.36567 25.516L8.08308 24.1052C8.28369 23.7107 8.11332 23.2347 7.70255 23.042Z" fill="#57C2DA"/>
</g>
<defs>
<clipPath id="clip0_80_7507">
<rect width="30" height="26" fill="white"/>
</clipPath>
</defs>
</svg>
