<svg width="39" height="26" viewBox="0 0 39 26" fill="none" xmlns="http://www.w3.org/2000/svg">
<g clip-path="url(#clip0_80_7530)">
<path d="M20.4013 24.2673C26.9584 24.2673 32.2741 18.8349 32.2741 12.1337C32.2741 5.43242 26.9584 0 20.4013 0C13.8441 0 8.52847 5.43242 8.52847 12.1337C8.52847 18.8349 13.8441 24.2673 20.4013 24.2673Z" fill="#FFE168"/>
<path d="M10.3031 13.714H2.48261C1.225 13.714 0.619483 13.1285 0.49838 11.8385C0.288778 9.76785 1.05732 8.24936 2.90182 7.33541C3.13071 7.22474 3.31689 7.03912 3.43081 6.80801C3.54472 6.5769 3.57985 6.31352 3.53063 6.05968C3.48572 5.43594 3.61729 4.81216 3.90964 4.26272C4.20199 3.71327 4.6428 3.26134 5.1795 2.96082C6.53493 2.08971 8.96631 2.28487 9.94911 3.91285C10.4382 4.73636 10.8807 5.08385 11.8961 4.72684C13.0745 4.32222 14.9423 5.37422 15.4826 6.55474C15.8428 7.18767 16.031 7.90749 16.0276 8.63969C15.9763 9.25375 16.4328 9.29183 16.8753 9.31087C17.4732 9.34858 18.048 9.56112 18.531 9.92316C19.0141 10.2852 19.3852 10.7815 19.6001 11.353C19.7226 11.8982 19.7384 12.4628 19.6467 13.0143C19.5955 13.4903 19.2694 13.7093 18.7524 13.7045C15.9391 13.7045 13.1211 13.714 10.3031 13.714Z" fill="#DADADA" stroke="white" stroke-width="1.2" stroke-miterlimit="10"/>
<path d="M27.048 25.6335C23.6012 25.6335 20.1544 25.6335 16.7123 25.6335C15.6829 25.6335 15.3429 25.2003 15.7807 24.2768C16.2186 23.3533 16.7682 22.4346 17.9047 22.1347C19.0412 21.8348 19.7678 21.1827 19.847 19.7547C20.0287 17.3651 22.5718 15.7085 25.2594 16.3035C25.8406 16.4609 26.4498 16.4766 27.038 16.3493C27.6262 16.2219 28.1768 15.9552 28.6457 15.5705C30.3877 14.2471 33.1358 14.5756 34.7008 16.0751C35.5718 16.8986 35.7302 17.9791 35.8467 19.0359C35.9445 19.926 36.0889 20.6734 36.9086 21.2065C37.9939 21.8967 38.4131 23.0392 38.6181 24.2768C38.7625 25.1765 38.5342 25.6715 37.4955 25.6573C34.0022 25.6049 30.5274 25.6335 27.048 25.6335Z" fill="#DADADA" stroke="white" stroke-width="1.2" stroke-miterlimit="10"/>
</g>
<defs>
<clipPath id="clip0_80_7530">
<rect width="39" height="26" fill="white"/>
</clipPath>
</defs>
</svg>
