<svg width="330" height="291" viewBox="0 0 330 291" fill="none" xmlns="http://www.w3.org/2000/svg">
<g style="mix-blend-mode:overlay" opacity="0.5" clip-path="url(#clip0_80_1560)">
<path d="M226.74 69C225.66 71.13 225.66 71.13 218.68 73.12C217.15 80.52 221.84 85 226.83 88.78C239.2 98.16 252.23 106.69 264.28 116.43C272.727 123.137 280.437 130.723 287.28 139.06C296.28 150.29 296.37 163.52 291.39 176.64C284.69 194.3 272.86 206.83 254.39 212.49C244.08 215.65 234.22 213.71 224.29 210.6C210.043 206.127 195.737 201.843 181.37 197.75C177.37 196.62 173.04 196.54 169.29 196.04C172.21 202.76 176.12 208.88 177.44 215.52C179.17 224.19 179.3 233.28 179.24 242.18C179.24 247.02 175.56 250.18 170.62 251.06C166.04 251.9 159.1 248.14 156.76 244.06C155.896 242.799 154.673 241.827 153.25 241.27C148.15 239.05 142.78 237.39 137.84 234.87C131.84 231.8 125.93 235.72 124.15 241.72C121.49 250.72 124.51 258.28 126.71 266.41C128.6 273.41 123.71 284.41 117.71 288.23C110.45 292.87 101.58 288.75 100.66 280.23C100.58 279.49 101.6 278.62 102.12 277.8C102.87 282.15 103.84 286.2 109.12 287.38C113.62 288.38 116.97 286.74 119.49 283.38C122.82 278.94 125.21 273.95 124.36 268.21C123.8 264.42 122.55 260.73 121.61 256.99L119.74 257.17C118.93 263.1 120.58 270.17 112.8 273.94C114.88 269.74 116.5 266.46 118.72 261.94L113.57 264.45C113.66 263.08 113.72 262.26 113.86 260.12C107.12 267.12 99.96 270.24 90.8 267.69C93.28 270.35 95.6499 272.49 98.4299 273.52C101.21 274.55 104.22 274.36 107.97 274.81L101.97 277.91C101.7 277.5 101.49 276.78 101.15 276.71C86.33 273.62 84.64 261.26 82.55 249.64C81.55 244.27 82.39 238.57 82.39 233.11C69.29 235.21 57.6799 241.76 47.6299 251.42C45.2399 253.72 42.4999 256.21 38.6299 254.16C37.4299 247.16 32.63 242.66 28.14 238.46C23.07 241.19 18.5599 244.23 13.6099 246.1C8.28993 248.1 4.24993 251.05 2.48993 256.4C1.78993 258.53 1.31998 262.29 2.40998 263.12C4.25998 264.53 7.40988 264.38 10.0599 264.55C11.0599 264.61 12.21 263.83 13.26 263.37C18.94 260.89 21.63 261.97 24.26 267.64C25 269.28 25.9799 270.81 26.8499 272.39L28.67 272.23C29.22 269.86 30.1899 267.5 30.2199 265.13C30.3099 258.9 31.3299 257.26 37.4899 255.13C33.3899 258.22 30.3 261.45 31.66 267.51C32.06 269.29 28.9699 271.85 27.4799 274.05C25.8099 272.46 23.4799 271.17 22.5999 269.23C19.7899 263.02 19.9799 262.92 13.5999 265.51C12.2299 266.07 10.7099 267.21 9.47992 266.97C6.54992 266.4 3.15994 265.81 1.11994 263.97C-0.190063 262.78 -0.100058 259.14 0.499942 256.91C2.36994 249.91 7.30996 245.91 14.27 244.17C17.1421 243.47 19.8214 242.137 22.1121 240.268C24.4029 238.4 26.2471 236.043 27.51 233.37C33.51 221.48 40.2599 210.11 52.7199 202.7C51.1299 201.64 49.9399 200.24 48.5599 200.03C40.1899 198.74 33.7999 188.47 36.3499 180.49C37.198 178.017 37.4448 175.377 37.0699 172.79C33.0699 151.6 47.0699 123.42 67.0699 113.88C53.4899 124.41 42.9399 137 39.9599 154.41C37.1699 170.71 40.7899 189.73 54.1999 199.72C53.2799 195.6 52.2799 191.5 51.4599 187.36C48.7399 173.58 54.3299 162.55 63.9599 153.62C76.412 141.924 91.5341 133.448 108.01 128.93C110.521 128.409 113.058 128.026 115.61 127.78C111.14 134.42 111.39 140.28 116.67 145.26C123.19 151.42 129.51 147.26 135.61 144.16C143.2 154.25 146.61 168 139.74 186.52C144.33 182.52 148.37 174.75 151.02 165.1C158.12 139.24 139.45 114.25 120.73 108.19C105.59 103.29 90.1299 103.56 75.2399 110.26C74.3999 110.63 73.52 110.92 72.66 111.26L71.9699 110.05C74.3399 108.76 76.5699 106.79 79.0799 106.3C86.9799 104.77 94.9599 103.19 102.97 102.73C117.56 101.88 130.42 106.2 140.39 117.53C140.842 117.894 141.367 118.157 141.929 118.302C142.491 118.447 143.078 118.47 143.65 118.37C145.19 117.981 146.815 118.108 148.275 118.734C149.735 119.359 150.949 120.447 151.73 121.83C155.73 127.97 158.73 134.27 154.82 141.7C154.37 142.56 154.76 143.86 154.76 145.1C167.67 142.36 180.66 141.6 192.95 144.71C200.28 146.57 204.2 143.71 209.44 140.71C213.37 138.398 217.747 136.946 222.28 136.45C230.28 135.81 234.79 142.45 231.01 149.45C229.13 152.94 225.39 155.78 221.89 157.95C218.72 159.95 216.26 161.16 218.09 165.49C218.42 166.29 216.89 168.56 215.7 169.2C210.16 172.2 206.05 168.71 201.93 165.36C206.71 166.26 211.23 171.1 216.33 166.52C214.84 160.61 215.4 159.11 221.21 156.52C225.58 154.59 228.67 151.78 230.05 147.17C231.52 142.23 229.05 138.59 223.93 138.22C218.81 137.85 214.11 138.68 209.99 142.12C207.47 144.22 204.58 145.87 202.07 147.59C202.65 151.65 203.24 155.74 203.83 159.83L202 160.09C201.86 158.5 201.67 156.91 201.59 155.32C201.28 149.43 199.27 146.92 193.29 146.32C186.21 145.57 179.09 145.32 171.41 144.79C173.54 150.42 175.84 155.14 177.09 160.12C178.34 165.1 178.57 170.46 179.24 175.64L177.81 175.85L177.21 169.25H176.74L176.11 175.25H175.11C174.59 170.67 174.11 166.09 173.53 161.51C173.314 160.049 172.98 158.607 172.53 157.2C168.98 145.43 168.21 144.95 155.68 146.71C157.03 179.04 140.02 199.78 111.88 211.82C91.9499 220.34 72.12 218.07 53.77 204.56L43.6299 212.64C49.9399 221 56.0199 229.03 62.1299 237.13L81.05 230.18C79.3767 225.8 77.71 221.413 76.05 217.02L77.4 216.46C78.04 217.54 79.0099 218.55 79.2599 219.72C81.5899 230.37 89.47 234.26 99.03 235.02C117.3 236.47 134.79 233.8 149.69 222.02C153.12 219.31 155.69 215.49 158.69 212.17L158.55 212.32L160.26 205.86C160.45 206.36 160.75 207.12 161.52 209.09L166.94 196.46L165.94 195.94L163.18 201.75L161.92 201.14C163.43 198.24 165.46 195.49 166.32 192.41C167.38 188.66 168.32 184.52 167.79 180.74C166.735 173.011 163.344 165.788 158.07 160.04C157.324 159.074 156.87 157.915 156.76 156.7C164.3 162.32 167.82 170.4 170.62 179.39C181.74 176.03 193.03 173.85 200.12 163.04C199.39 170.46 184.46 179.22 170.89 180.43C170.44 183.32 169.96 186.32 169.6 188.62C180.86 191.73 191.67 194.34 202.23 197.75C211.74 200.81 220.8 205.31 230.36 208.2C260.05 217.2 283.53 194.75 289.53 171.11C293.15 156.85 289.44 144.73 279.04 133.92C264.77 119.09 247.53 108.23 231.37 95.92C227.55 93.01 223.43 90.16 220.61 86.41C218.01 82.96 216.98 78.34 215.18 74.04C206.72 72.27 197.24 70.41 187.83 68.26C184.964 67.4856 182.189 66.4096 179.55 65.05C171.91 61.46 170.39 51.42 177.55 47.19C185.55 42.46 191.78 36.19 198.04 29.58C199.85 27.69 203.2 26.58 205.92 26.39C229.46 24.92 253.01 23.74 276.56 22.53C278.83 22.41 280.45 22.16 281.26 19.44C281.599 18.5868 282.127 17.8214 282.804 17.2014C283.481 16.5814 284.29 16.1228 285.17 15.86C293.01 14.38 297.63 8.15002 303.62 3.97002C310.99 -1.16998 319.05 -1.28999 326.74 3.79001C324.03 10.28 321.62 17.07 318.38 23.44C316.38 27.31 317.56 29.02 320.91 30.51C323.61 31.7 326.26 32.97 329.27 34.37C326.2 39.37 321.95 40.08 317.98 40.1C314.28 40.1 312.19 41.33 309.98 44.24C301.89 54.78 289.87 59.35 278.12 64.24C276.91 64.74 275.63 65.1 273.62 65.79C279.39 69.03 284.62 72.1 289.92 74.91C295.06 77.61 300.34 80.03 305.42 82.5C302.26 93.19 293.89 93.12 286.49 94.18C277.65 95.44 269.49 92.49 261.79 88.47C250 82.29 238.45 75.63 226.79 69.18C224.08 66.75 224 63.93 227.17 62.39C231.76 60.15 232.76 56.39 232.37 52.17C231.74 45.17 230.74 38.17 229.49 31.27C229.28 30.09 227.13 28.45 225.84 28.42C219.53 28.26 213.2 28.42 206.9 28.77C202.61 29 199.2 30.99 196.83 35.49C202.25 35.77 207.2 35.92 212.12 36.34C213.61 36.47 215.03 37.34 216.48 37.89C215.75 39.44 215.42 41.49 214.22 42.46C212.3 44.0312 210.05 45.1471 207.637 45.7239C205.225 46.3006 202.713 46.3232 200.29 45.79C196.49 45.07 192.55 43.36 188.93 43.87C185.61 44.34 182.46 46.96 179.53 49.04C174.22 52.82 175.02 59.64 180.95 62.29C183.35 63.36 185.81 64.29 188.27 65.29C200.57 69.91 213.63 69.53 226.74 69ZM267.74 60.64C266.17 49.71 264.87 40.14 263.35 30.64C262.96 28.12 261.83 26.02 258.48 26.23C249.25 26.81 240.01 27.23 231.85 27.61C233.01 37.7767 234.16 47.81 235.3 57.71C245.22 56.2 255.84 54.07 267.68 60.67L267.74 60.64ZM263.22 25.22C268.42 36.55 269.04 46.84 268.44 57.28C268.15 62.34 269.74 64.45 273.56 62.98C279.84 60.57 285.92 57.61 292.03 54.77C292.948 54.3469 293.665 53.5829 294.03 52.64C296.38 44.29 298.37 35.86 293.28 27.8C292.81 27.1266 292.204 26.559 291.501 26.1336C290.798 25.7082 290.015 25.4345 289.2 25.33C280.74 25.1 272.41 25.22 263.16 25.22H263.22ZM281.03 73.84C270.86 64.2 256.7 62.71 245.57 70.72L256.34 77.32L255.48 78.93L242.76 72.58L241.54 73.33C242.31 74.53 242.79 76.33 243.88 76.83C252.49 80.94 261.08 85.13 269.93 88.66C274.209 90.4754 278.806 91.4243 283.454 91.4518C288.102 91.4792 292.71 90.5847 297.01 88.82C298.96 88.01 300.4 85.98 302.08 84.51L301.08 83.51C291.45 86.57 291.45 86.57 288.47 84.17L294.47 80.23C291.34 78.81 288.26 76.07 285.78 76.54C277.95 78.04 270.35 80.74 262.66 82.98L262.37 82.8L281.03 73.84ZM59.4799 238.57C54.0899 232.24 48.8999 226.15 43.7299 220.04C41.5899 217.51 39.5299 217.49 37.8099 220.34C34.8099 225.34 31.9399 230.41 29.5599 234.53L42.5599 252.84L59.4799 238.57ZM122.48 238.02L84.42 236.13C84.5698 238.605 84.5464 241.088 84.3499 243.56C83.7899 247.83 86.62 248.97 89.64 248.99C96.0703 249.037 102.499 248.753 108.9 248.14C119.38 247.14 122.18 244.67 122.44 238.02H122.48ZM121.33 246.76C109.26 252.08 97.3299 254.1 84.0999 248.64C85.7799 254.08 87.0099 258.42 88.4599 262.64C89.6999 266.27 93 265.72 95.78 265.64C97.2 265.64 98.5799 264.31 100.01 264.22C110.65 263.5 117.36 258.44 120.65 248.42C120.81 247.9 121.06 247.33 121.29 246.76H121.33ZM137.33 232.07C147.27 238.07 146.06 239.07 154.94 232.39C161.07 227.78 165.94 221.16 170.38 214.74C174.38 209 173.22 205.58 167.99 200.37C161.98 215.3 153.46 224.17 137.28 232.07H137.33ZM149.96 237.6C158.3 241.44 166.9 239.76 172.84 233.28C177.42 228.28 177.84 219.42 173.84 212.2C168.91 223.54 160.54 231.58 149.91 237.6H149.96ZM231.74 63.74L232.68 62.64C235.29 64.36 237.83 66.21 240.54 67.76C241.72 68.44 243.42 69.12 244.54 68.76C251.4 66.66 258.17 64.26 264.44 62.14C253.62 55.94 233.35 57.7 226.08 66.53L239.08 74.41C242.89 70.6 238.71 70.11 237.2 68.67C235.52 66.98 233.63 65.38 231.74 63.74ZM296.41 12.93C304.09 13.99 311.79 11.19 317.82 17.03C319.95 12.77 321.97 8.71002 324.01 4.62002C310.56 -0.169985 308.93 1.54001 296.45 12.93H296.41ZM282.74 22.35H315.1C315.22 17.84 314.28 16.51 309.59 16.35C303.29 16.08 296.96 16.03 290.68 16.35C287.26 16.52 284.06 17.92 282.74 22.35ZM176.58 231.4C171.29 237.16 166.4 242.31 158.15 241.4C162.09 247.4 168.15 249.9 172.78 248C177.16 246.2 178.48 241.18 176.58 231.4ZM299.74 32.67C309.52 37.89 319.88 38.62 324.61 34.76C316.83 31.04 308.74 27.67 299.74 32.67ZM297.45 50.67L299.16 51.87L308.72 39.29L298.72 35.82C298.26 40.83 297.86 45.72 297.45 50.67ZM153.68 138.25C155.11 132.86 153.08 128.39 150.68 124.36C149.41 122.27 146.61 121.12 144.5 119.55L143.74 120.67L153.68 138.25ZM313.74 26.94L314.3 25.47C307.95 24.96 301.52 25.34 294.54 25.22C295.6 27.38 296.427 29.0467 297.02 30.22L313.74 26.94ZM46.8299 197.54L37.9699 180.73C38.1199 188.39 40.7399 193.59 46.8399 197.54H46.8299ZM199.08 43.96L211.16 40.83L210.77 39.28C207.14 40.43 202.15 35.78 199.09 43.96H199.08ZM95.2099 141.67C95.5099 142.25 95.8099 142.83 96.0999 143.41L108.37 138.03L107.43 135.93L95.2099 141.67ZM100.3 157.37L101.85 158.56L109.79 148.02L108.05 146.74L100.3 157.37ZM118.54 153.61L116.54 153.47C116.04 158.01 115.537 162.553 115.03 167.1L116.27 167.27L118.54 153.61Z" fill="white"/>
<path d="M50.33 192.67C44.23 180.91 45.33 169.61 52.33 159.02C58.27 150.02 66.8001 143.7 75.8001 137.95C85.2601 131.95 94.8001 126.05 105.8 123.23C129.36 117.18 151.49 135.01 149.5 159.15C149.09 164.07 148.03 168.93 147.28 173.82L145.28 173.56C145.7 168.35 146.13 163.13 146.54 157.91C148.26 136.43 128.45 122.16 111.76 124.44C98.3301 126.26 86.1601 131.95 75.2901 139.96C69.1538 144.47 63.4069 149.488 58.11 154.96C48.61 164.82 46.29 176.74 49.84 189.88C50.0548 190.8 50.2184 191.732 50.33 192.67Z" fill="white"/>
<path d="M90.3199 59.09C88.4999 55.31 87.65 51.16 85.11 48.97C82.76 46.97 78.6 46.97 73.64 45.72C81.47 41.1 83.81 35.81 78.25 27.33C86.09 29.02 92.7399 32.94 98.0599 24.62C98.6199 27.46 99.3499 28.84 99.0599 29.9C97.3499 35.55 100.42 38.4 104.84 40.73C107.03 41.88 108.03 44.54 105.15 44.86C97.15 45.73 94.75 51.42 92.33 57.49C92.15 57.86 91.5899 58.08 90.3199 59.09ZM104.5 43.32C99.78 39.44 94.16 37 96.64 29.45C90.48 32.91 90.48 32.91 82.01 30.27C85.73 36.48 84.01 41.21 78.25 45.09C86.75 43.38 88.37 49.6 91.02 55.38C93.46 48.39 97.19 44 104.5 43.32Z" fill="white"/>
<path d="M158.45 212.15C154.07 210.82 153.63 207.3 154.93 203.99C156.77 199.515 159.364 195.388 162.6 191.79C161.78 194.15 161.41 196.79 160.04 198.79C157.04 203.11 155.7 207.37 158.31 212.27L158.45 212.15Z" fill="white"/>
<path d="M189.42 105.96C186.14 105.96 185.23 109.16 185.34 112.27L180.79 105.47C181.95 103.87 183.79 101.31 184.99 99.66L189.42 105.96Z" fill="white"/>
<path d="M190.63 169.43C190.03 162.13 189.42 154.62 188.83 147.43C191.74 151.36 192.74 162.51 190.63 169.43Z" fill="white"/>
</g>
<defs>
<clipPath id="clip0_80_1560">
<rect width="329.04" height="290.12" fill="white"/>
</clipPath>
</defs>
</svg>
