<svg width="37" height="27" viewBox="0 0 37 27" fill="none" xmlns="http://www.w3.org/2000/svg">
<g clip-path="url(#clip0_80_7502)">
<path d="M9.97464 19.8079C15.4835 19.8079 19.9493 15.3738 19.9493 9.90396C19.9493 4.43415 15.4835 0 9.97464 0C4.4658 0 0 4.43415 0 9.90396C0 15.3738 4.4658 19.8079 9.97464 19.8079Z" fill="#FFE168"/>
<path d="M19.4413 26.3591H5.37878C3.11372 26.3591 2.03796 25.3325 1.79293 23.0835C1.41641 19.4578 2.79099 16.8053 6.11388 15.2031C7.09999 14.7343 7.30916 13.9391 7.2494 12.9719C7.10596 10.5567 8.23551 8.81803 10.2376 7.55407C12.676 6.02308 17.0567 6.36726 18.8257 9.25122C19.6863 10.6813 20.4752 11.2747 22.31 10.6813C24.4376 9.96924 27.8023 11.8147 28.7645 13.8739C29.3024 15.0191 29.8642 16.1703 29.7506 17.5233C29.655 18.5974 30.4797 18.6686 31.2746 18.7101C33.4142 18.7991 35.6434 20.4191 36.1812 22.2706C36.4029 23.2247 36.4314 24.2131 36.2649 25.1782C36.1753 26.0209 35.5896 26.3947 34.6572 26.3651C29.5892 26.3413 24.5033 26.3591 19.4413 26.3591Z" fill="#DADADA" stroke="white" stroke-width="1.2" stroke-miterlimit="10"/>
</g>
<defs>
<clipPath id="clip0_80_7502">
<rect width="37" height="27" fill="white"/>
</clipPath>
</defs>
</svg>
